<svg xmlns="http://www.w3.org/2000/svg" viewBox="0 0 140.95 139.78"><defs><style>.cls-1{fill:#fff;}</style></defs><g id="Layer_2" data-name="Layer 2"><g id="Layer_1-2" data-name="Layer 1"><path class="cls-1" d="M9.88,64.13c-.06.24-.12.47-.17.7-1,1-.68,2.36-.78,3.6,0,.42.3,1.06-.68,1-2.08-.09-4.16-.08-6.25-.06-1,0-1.41-.46-1.45-1.47-.05-1.49.3-3-.23-4.46l.15-.69c1-1.57.81-3.31.74-5A63.65,63.65,0,0,1,9.42,34.81,69.94,69.94,0,0,1,36.36,8.25,67.68,67.68,0,0,1,53.28,1.56a13,13,0,0,1,1.54-.22c.43,0,.88.15,1.2-.29A.19.19,0,0,1,56.24,1c.65,0,1.35.3,1.88-.33L58.2.6l.09,0c.65,0,1.37.34,1.9-.34L60.9.09c.73.41.65,1.1.71,1.8.15,2-.43,4.12.31,6.13v0c.23.47.78.79.72,1.41l-.08.06-.09,0c-1.15,0-2.35-.37-3.33.58a83.77,83.77,0,0,0-11.22,3.51,62.52,62.52,0,0,0-23.56,17A70.39,70.39,0,0,0,14.51,46l-.28.52a.11.11,0,0,1-.05.17.75.75,0,0,0-.29.87.14.14,0,0,1-.06.18c-.7.31-.75.89-.65,1.54a.15.15,0,0,1,0,.2c-1.14.29-.56,1.18-.66,1.84a.23.23,0,0,1-.07.25c-.72.16-.87.5-.33,1L11.68,54c-1.09.37-.51,1.24-.59,1.91q.08.12,0,.18A14.53,14.53,0,0,0,9.88,64.13Z"/><path class="cls-1" d="M79.65,135.14c0-4.37,0-4.27,4.23-5.32,21.87-5.43,36.9-18.58,44.73-39.83A60.38,60.38,0,0,0,132,71.62c.06-1.24.44-1.59,1.63-1.54,2,.08,4,.07,5.92,0,1,0,1.44.27,1.4,1.37-.76,20.68-8.81,38-24.28,51.69A67.74,67.74,0,0,1,82,139.43a4,4,0,0,0-.85.15c-1.38.57-1.6-.15-1.55-1.3S79.65,136.19,79.65,135.14Z"/><path class="cls-1" d="M103.58,69c-7.3,0-14.15,0-21,0A15,15,0,0,0,72.85,72c-1.85,1.43-2.91,1.48-4.71.08A15.81,15.81,0,0,0,57.73,69c-6.21.1-12.43,0-18.64,0a8.26,8.26,0,0,1-1.75-.13,6.07,6.07,0,0,0,2.46-4,2.44,2.44,0,0,1,2.91-2.14,96.28,96.28,0,0,0,11.14,0c5.94-.42,10.74,1.8,14.93,5.75a1.88,1.88,0,0,1,.25.24c1,1.36,1.78,1.23,3-.06,3.52-3.63,7.7-6,13-5.89,4.64.11,9.29.09,13.94,0,1.25,0,1.79.45,2,1.61A7.62,7.62,0,0,0,103.58,69Z"/><path class="cls-1" d="M.32,63.46c.53,1.46.18,3,.23,4.46,0,1,.41,1.48,1.45,1.47,2.09,0,4.17,0,6.25.06,1,0,.65-.6.68-1,.1-1.24-.24-2.56.78-3.6a68.67,68.67,0,0,0,.56,16.64,61.15,61.15,0,0,0,15,31A54.19,54.19,0,0,0,36,122.31c10.25,6.61,21.36,10.76,33.74,10.87.23,0,.46,0,.7,0,.47,0,1,0,1,.69,0,.82-.57.72-1.08.72a52.16,52.16,0,0,1-9-.77,61.79,61.79,0,0,1-25.74-10.32,63.11,63.11,0,0,1-23.5-30,61.1,61.1,0,0,1-4-21.93c0-1.5-.48-1.9-1.89-1.8-1.56.11-3.13,0-4.7.05C.38,69.84-.1,69.5,0,68.32.17,66.71.22,65.08.32,63.46Z"/><path class="cls-1" d="M112.85,101.11c-5.2,6.7-12.1,8.67-20.21,7.2-3.08-.56-3.09-.59-1.67-3.5a38.36,38.36,0,0,1,10.11-12.25,2.4,2.4,0,0,1,1.73-.83c-2.14,4.68-2.38,10.2-7.3,13.39,5.93-1,11.65-2.44,17.34-4Z"/><path class="cls-1" d="M32.45,101.74l9.35,2.16c1.88.43,3.69,1.2,5.78,1.23-4.57-2.7-5.15-7.66-7-11.87-.17-.39-.44-.81-.09-1.1s.77.11,1.07.32a30.26,30.26,0,0,1,6.77,6.69,42.28,42.28,0,0,1,4.59,7.75c.21.46.82,1.07-.35,1.17-2.54.21-5.08.53-7.62.67a15.89,15.89,0,0,1-11.7-4.38c-.56-.49-1.1-1-1.64-1.51A1.16,1.16,0,0,1,32.45,101.74Z"/><path class="cls-1" d="M106.11,97.6c4.63-4.25,10.33-7.26,14.36-12.35,0,2.48-1.79,6.18-4.08,9.35-3.27,4.54-8.13,6.08-13.15,7.43-.53.15-.91.14-.91-.56a30.74,30.74,0,0,1,6.53-19.73,36.72,36.72,0,0,1-3.09,15.44c-.21.19-.43.45-.17.69S106,97.81,106.11,97.6Z"/><path class="cls-1" d="M34,81.9a27.41,27.41,0,0,1,5.6,10.94,42.28,42.28,0,0,1,1.05,8.08c.08,1-.09,1.28-1.22,1-4.84-1.2-9.44-2.81-12.68-6.92a20.48,20.48,0,0,1-4.34-9.18c4.84,4.56,9.94,8.05,14.79,12.07C34.88,92.76,34.2,87.38,34,81.9Z"/><path class="cls-1" d="M115.14,53.77a15.22,15.22,0,0,0-4.93-4.35,20,20,0,0,1-7.2-8.89c1.08.25,1.62,1,2.36,1.47a23.51,23.51,0,0,0,2.29,1.38c-2.34-3-4.93-5.91-6.59-9.47,4.52,1.14,7.26,4.44,9.8,8.23a5.93,5.93,0,0,0-.23-3.33c-.22-1.05-.62-2.07-.8-3.15C115.83,40.31,116.09,46.7,115.14,53.77Z"/><path class="cls-1" d="M36.26,42.65a1.64,1.64,0,0,0,.5,0c.74-.28,1.31-1.6,2.1-.87.43.4-.58,1.33-.91,2C36.35,47,33.1,48.63,30.58,51c-.88.81-1.84,1.56-2.78,2.35-1.93-5.69.78-15.41,4.67-16.87.08,1.91-.58,3.73-.7,5.69A23.51,23.51,0,0,1,42,33.23a14.06,14.06,0,0,1-2.73,4.94C38.2,39.59,37,41,35.9,42.35l-.31.31-.39.45c.29.18.49.12.61-.21Z"/><path class="cls-1" d="M26.09,42.81V57.32c2-3.69,5.53-5.59,8.55-8.09-1.55,6.91-7.08,11.5-9.91,17.8C21.23,61.64,21.43,47.36,26.09,42.81Z"/><path class="cls-1" d="M116.65,57.27V42.87a4.67,4.67,0,0,1,2.11,2.76c2.69,7.21,2.27,14.37-.41,21.85-2.53-6-7.54-10.18-9.64-16.12-.16-.45-.76-1-.27-1.38s1.06.07,1.48.45C112.28,52.53,115.15,54.15,116.65,57.27Z"/><path class="cls-1" d="M45,47.7c0-1.69.06-3.37,0-5.05-.06-1.38.86-1,1.63-1.1s1.41,0,1.38,1.15c-.07,2.78,0,5.56,0,8.35a6.69,6.69,0,0,0,.63,3,1.88,1.88,0,0,0,2,1.1A1.85,1.85,0,0,0,52.38,54a5.79,5.79,0,0,0,.5-2.35c0-2.84.08-5.68,0-8.52-.05-1.44.6-1.54,1.77-1.57S56.1,41.88,56,43c-.21,3.63.43,7.31-.41,10.91a5.31,5.31,0,0,1-7.91,3.65,5,5,0,0,1-2.48-4.31c-.18-1.83,0-3.7,0-5.55Z"/><path class="cls-1" d="M29.09,85a44.21,44.21,0,0,1,1.76-14.65c2.82,6.76.78,13.31.44,19.87C25.39,87.36,18.47,78,19.43,72.54A127.62,127.62,0,0,1,29.09,85Z"/><path class="cls-1" d="M88.27,109.42c2.7.33,5.28,1.24,8,1.74a31.54,31.54,0,0,0,8.13.29,14,14,0,0,1-6.65,2.91,27.46,27.46,0,0,1-16.81-2,37.4,37.4,0,0,0-3.61-1.23c-.56-.69-1.94-.16-2.1-1.43h.13c1-.07,2.2.58,3-.59l1.41-.26a10.07,10.07,0,0,0,4.85,0l2.46.31C87.39,109.57,87.84,109.46,88.27,109.42Z"/><path class="cls-1" d="M123,75.39c.27,1.8-.68,3.3-1.47,4.72a29.38,29.38,0,0,1-9.7,10.21c-1-6.69-2.7-13.22.3-20.17,1.3,5.1,2.14,9.83,1.25,15a7.78,7.78,0,0,0,2.2-2.61,36.74,36.74,0,0,1,4.78-6.17,14.52,14.52,0,0,0,2.19-2.82.4.4,0,0,0,.31-.45v0c.6.47.41,1.17.52,1.78V75Z"/><path class="cls-1" d="M65.42,111.17l-.52.1a.76.76,0,0,0-.86.31h0a.7.7,0,0,0-.71.31c-5.86,2.52-11.9,3.77-18.26,2.47a19.11,19.11,0,0,1-6.33-2.49l0-.51a42.15,42.15,0,0,0,6.46-.06c3.87-.61,7.68-1.65,11.54-2.34a13.73,13.73,0,0,1,6.21.16,6.45,6.45,0,0,0,3.72.62l.46.05c0,.6-.41.75-.92.73S65.48,110.68,65.42,111.17Z"/><path class="cls-1" d="M64.34,49.78c0-2.26,0-4.53,0-6.79,0-.93.2-1.41,1.21-1.4,2,0,4.07,0,6.1,0,1.38,0,1,1,1,1.71s.08,1.52-1.11,1.39c-.81-.08-1.63,0-2.44,0a2.08,2.08,0,0,0-1.78,3.13c.22.43.57.32.89.33.75,0,1.51,0,2.26,0s1.83-.36,1.82,1.25c0,1.43-.51,1.85-1.79,1.73-.41,0-.83.06-1.22,0-1.53-.27-1.91.36-2,1.86s.21,2.42,2,2.13c.62-.11,1.28,0,1.91,0,1.11-.13,1.63.1,1.63,1.44s-.51,1.5-1.63,1.45c-1.91-.08-3.83-.07-5.75,0-.92,0-1.19-.26-1.17-1.18C64.38,54.43,64.34,52.11,64.34,49.78Z"/><path class="cls-1" d="M113.23,68.34a.26.26,0,0,1-.06-.29c0-.69.16-1.4-.63-1.81,0-.17-.07-.34-.1-.51a.84.84,0,0,0-.24-.88c0-.18-.07-.36-.1-.54,0-.43.14-.86-.25-1.2l0-.71c.64-.44,0-1.46.83-1.81l.25.26.26.51a.27.27,0,0,1,.07.26l.26.44a.2.2,0,0,1,.1.23l.27.47a.17.17,0,0,1,.08.21l.32.48h0a.67.67,0,0,0,.35.7h0a.63.63,0,0,0,.37.69h0l.26.37.12.54c0,.34,0,.67.35.84,1,1.54,1.25,3.33,2,5.56,1.46-5.78,4.29-10.52,6.07-15.73a12.86,12.86,0,0,1,.21,7.71A29.77,29.77,0,0,1,118,76.5c-.28.32-.46.92-1,.76s-.29-.7-.38-1.07c-.57-2.27-2-4.17-2.8-6.32l-.24-.49a.32.32,0,0,1-.07-.31A.72.72,0,0,0,113.23,68.34Z"/><path class="cls-1" d="M19.75,58.64l0,.14a.81.81,0,0,0,.29.83c2.59,3.77,3.73,8.17,5.37,12.94A33.22,33.22,0,0,1,31,59.61c.92,6.6-3.24,11.69-5.1,17.83-3.29-3.72-5.63-7.52-6.5-12.13,0-.64.3-1.35-.36-1.87v-.13c0-.66.28-1.36-.26-2V60C19.14,59.57,19.15,58.88,19.75,58.64Z"/><path class="cls-1" d="M93,58.24c-4.33,0-7-2.82-7.37-7.41a10.88,10.88,0,0,1,1.58-6.47,7.26,7.26,0,0,1,8.15-2.75c1.11.38.85,1.11.65,1.79s0,1.56-1.25,1.28c-1.94-.42-4-.44-5,1.62a7.07,7.07,0,0,0,.11,7.14c1.08,1.79,3,1.8,4.81,1.57.44,0,1.09-.69,1.1.31,0,.82,1.06,1.87-.27,2.44A4.08,4.08,0,0,1,93,58.24Z"/><path class="cls-1" d="M74.45,49.92c.19-3.15.82-6.06,3.94-7.76a7.45,7.45,0,0,1,4.54-.73c2.22.24,2.09.27,1.78,2.44-.22,1.58-1.13.75-1.71.69-2.82-.29-4.33.54-5,2.87-1,3.39,0,6.32,2.29,7.38a5.34,5.34,0,0,0,2.9.2c.59-.06,1.32-.67,1.36.47,0,.84.83,1.9-.7,2.45a7.05,7.05,0,0,1-8.09-2.7A9.14,9.14,0,0,1,74.45,49.92Z"/><path class="cls-1" d="M71.16,75.3h32.75c.31,0,.55.08.58.46s-.24.6-.64.6H39.22a5.45,5.45,0,0,1-.7,0c-.35-.06-.92.22-1-.41s.59-.56,1-.57q5.74,0,11.5-.06,10.53,0,21.08,0Z"/><path class="cls-1" d="M65.42,111.17c.06-.49.37-.66.83-.65s.9-.13.92-.73c2.67.24,5.35.63,8-.05.16,1.27,1.54.74,2.1,1.43h-3a3.81,3.81,0,0,0,1.57,1.14A27.63,27.63,0,0,1,83.27,118c.45.47,1.61,1,.68,1.93s-1.48-.12-2-.66a28.93,28.93,0,0,0-7.5-6.39,5.55,5.55,0,0,0-6.06,0A28.52,28.52,0,0,0,61,119.06a11.4,11.4,0,0,1-.81.89c-.57.55-1.14.17-1.54-.18s.06-.8.33-1.12a26.85,26.85,0,0,1,8.2-6.35l1.61-.83C67.7,110.32,66.51,111.32,65.42,111.17Z"/><path class="cls-1" d="M61.62,49.68c0,2.32-.07,4.65,0,7,.05,1.2-.47,1.34-1.43,1.26-.78-.06-1.61.22-1.59-1.13.07-4.71.06-9.41,0-14.12,0-1.37.87-1,1.63-1.1s1.43,0,1.38,1.15C61.56,45,61.62,47.36,61.62,49.68Z"/><path class="cls-1" d="M44.14,92.47c.62-.71,1.24-.48,1.78-.48H97.1c.41,0,.82,0,1.22,0,.23,0,.48,0,.51.33s-.26.45-.56.46c-.46,0-.92,0-1.39,0H46.05A2.65,2.65,0,0,1,44.14,92.47Z"/><path class="cls-1" d="M79.37,88.37c.68-.79.43-1.94,1.5-2.49.48,1.2.24,2.38.26,3.72-.66-.72-.16-1.47-.53-2.12-.85.37-.51,1.55-1.3,2-.81-.27-.52-1.3-1.15-1.79-.36.53.12,1.34-.71,1.89-.25-1.39.21-2.53.2-4C78.75,86.46,78.62,87.63,79.37,88.37Z"/><path class="cls-1" d="M62.65,9.47c.06-.62-.49-.94-.72-1.41l3.86-.16c0,.86.58.78,1.16.82,1,.08,2-.25,3,.22Z"/><path class="cls-1" d="M37.61,78.92c.07.71.14,1.43.22,2.14.06.49.16.92.8.93s.74-.43.8-.91a5,5,0,0,1,.46-2.32,3.62,3.62,0,0,1-.62,3.62,1,1,0,0,1-1.43.1c-1.27-1-.44-2.36-.73-3.53Z"/><path class="cls-1" d="M76.24,89.8c-1-1.07-1.8-2.12-2.71,0-.29-1.53.64-2.34.93-3.36.18-.65.49-.33.73.11A8.13,8.13,0,0,1,76.24,89.8Z"/><path class="cls-1" d="M82.47,82.49c-.59,0-1.48.48-1.7-.18a5.59,5.59,0,0,1,0-3.41c.21-.66,1-.38,1.67-.21-.24.73-1.47.06-1.33,1.23C81.35,82,81.27,82,82.47,82.49Z"/><path class="cls-1" d="M95.82,82.41c-.2-1.36.42-2.44,1.56-2.46s.77,1.52,1.39,2.48c-.84-.16-.84-1-1.47-1.06C96.5,81.29,96.36,82.05,95.82,82.41Z"/><path class="cls-1" d="M79.63,78.73c-1.91.71-.7,2.55-1.36,3.75-.89-1.15.65-2.94-1.49-3.64A3.6,3.6,0,0,1,79.63,78.73Z"/><path class="cls-1" d="M93.89,82.68c-.64-1.47.48-3.06-1.15-3.91.47-.4,1-.25,1.38-.24s.93-.22,1.06.26-.58.23-.71.51C94,80.28,94.54,81.45,93.89,82.68Z"/><path class="cls-1" d="M84.24,87.66c-.44.35-1.17.15-1.18.92,0,1,1,.42,1.51,1-.83,0-1.73.53-2-.37a5.25,5.25,0,0,1,.08-3c0-.11.69-.12.54.19C82.68,87.55,83.6,87.47,84.24,87.66Z"/><path class="cls-1" d="M99.78,88.73l-1-1.36c-.4.7.05,1.52-.61,2.35A7.74,7.74,0,0,1,98.07,86,3.68,3.68,0,0,1,100,88.16Z"/><path class="cls-1" d="M69.93,8.94c-1-.47-2-.14-3-.22-.58,0-1.18,0-1.16-.82l.71-.11c1,.47,2,.14,3,.22.58,0,1.19,0,1.14.82Z"/><path class="cls-1" d="M9.88,64.13a14.53,14.53,0,0,1,1.18-8Q10.46,60.13,9.88,64.13Z"/><path class="cls-1" d="M103.45,78.42c-.61,1.38.15,1.68.79,2.12s.82.84.37,1.46-.88.89-1.57.24c.27-.41,1,0,1-.62s-.42-.76-.81-1C102.27,80.09,102.16,79.49,103.45,78.42Z"/><path class="cls-1" d="M74.35,80l.73.86c.59-.59.15-1.39.67-2.2v3.75c-1-.35-1.2-1.39-1.68-2.16Z"/><path class="cls-1" d="M90.2,79.17c-.2.71.36,1.34,0,2.14-.37,1,.85.77,1.71,1.28-1.08-.07-2.19.33-2.25-.33-.11-1.16-.87-2.57.47-3.59C90.19,78.84,90.2,79,90.2,79.17Z"/><path class="cls-1" d="M94.36,89.27c2.79.23,1.21-2.13,2-3.36.16,1.31.61,2.49-.28,3.49a1,1,0,0,1-1.7-.16Z"/><path class="cls-1" d="M54.75,87.81c.19,0,.5.49.52-.12a7.81,7.81,0,0,1,.19-1.85c.83,1,.4,2.11.47,3.17a.35.35,0,0,1-.46.37,1.27,1.27,0,0,1-.88-1.32A.22.22,0,0,1,54.75,87.81Z"/><path class="cls-1" d="M68.45,82.43c-2.39.34-2.51.11-1.9-3.92.23.85.59,1.42.45,1.81C66.48,81.72,67,82.33,68.45,82.43Z"/><path class="cls-1" d="M85.91,81.89c-.46-.37-.47-1.15-1.19-1s-.14,1.08-.93,1.61c.4-1.49-.62-3,1-4-.35.85-1.4,1.73.59,2C85.86,80.64,86.18,81.13,85.91,81.89Z"/><path class="cls-1" d="M100.45,82.69c-.83-1.3.11-2.79-1-3.78a2.57,2.57,0,0,1,1.71,0C100.17,80,101,81.34,100.45,82.69Z"/><path class="cls-1" d="M61.92,8c-.74-2-.16-4.09-.31-6.13-.06-.7,0-1.39-.71-1.8.93-.3,1.09.21,1.07,1C61.94,3.39,61.93,5.7,61.92,8Z"/><path class="cls-1" d="M32.45,101.74a1.16,1.16,0,0,0-.85,1.13A13.23,13.23,0,0,1,29,100.15Z"/><path class="cls-1" d="M86,89.81c-.68-2.7-.45-3.63.86-3.93C85.77,86.94,86.88,88.43,86,89.81Z"/><path class="cls-1" d="M112.65,60.59c-.84.35-.19,1.37-.83,1.81a7.24,7.24,0,0,1,0-3.56A3.08,3.08,0,0,1,112.65,60.59Z"/><path class="cls-1" d="M54.05,87.36c-.22-.21-.53-.41-.63,0s.06,1.14-.54,1.7a15.88,15.88,0,0,1,0-1.69c.06-.53-.35-1.38.28-1.53s1,.63,1.16,1.25Z"/><path class="cls-1" d="M44,81.37a1.57,1.57,0,0,1-.33.3c-.25.14-.39,0-.58-.18-.54-.47-.45-1.56-1.61-1.49-.28,0-.29-.87,0-1.17s.61.1.8.36A7.15,7.15,0,0,0,44,81.37Z"/><path class="cls-1" d="M47.21,78.77c1.16.87.6,2.34,1.74,2.93.25.13,0,.55-.2.71s-.53-.11-.61-.33A10.11,10.11,0,0,1,47.21,78.77Z"/><path class="cls-1" d="M99.78,88.73l.18-.57c1-.36-.07-1.53,1.05-2.14,0,.88,0,1.62,0,2.35,0,.42.29,1-.29,1.2S100,89.15,99.78,88.73Z"/><path class="cls-1" d="M53.11,82.45c-.77,0-1.69.61-1.92-.29a6.29,6.29,0,0,1,.08-3.22c0-.07.34-.12.47-.06.34.13,0,.22-.06.29-.47.52.25,1,.08,1.42C51.11,82,51.8,82.34,53.11,82.45Z"/><path class="cls-1" d="M71.54,82.27a4,4,0,0,1,0-3.29Z"/><path class="cls-1" d="M70.63,8.83c.05-.86-.56-.78-1.14-.82-1-.08-2,.25-3-.22l4.17-.12c.37,0,.7.08.71.55S71.18,9,70.63,8.83Z"/><path class="cls-1" d="M94.39,89.24c-1.36-.9-.53-2.09-.44-3.19a6.92,6.92,0,0,1,.41,3.22Z"/><path class="cls-1" d="M1.21,57.74c.07,1.72.25,3.46-.74,5A18.61,18.61,0,0,1,1.21,57.74Z"/><path class="cls-1" d="M19.75,58.64c-.6.24-.61.93-1,1.32a6.59,6.59,0,0,1,.47-3.35C20,57.15,19.74,57.93,19.75,58.64Z"/><path class="cls-1" d="M74.07,80.26c-.24-.06-.52-.34-.59.19s.2,1.37-.31,2.13a14.83,14.83,0,0,1-.09-3.81c.87.16,1,.77,1.27,1.24Z"/><path class="cls-1" d="M54.69,79.21c0,1.05.58,2.11-.22,3.16a9.42,9.42,0,0,1,0-3.39Z"/><path class="cls-1" d="M45.42,89.17c-1.11-1-1.11-2,0-3.27-.06,1.16-.43,2.1.19,2.91Z"/><path class="cls-1" d="M64.09,86.05a1.88,1.88,0,0,1,0,2.94l-.27-.29a3,3,0,0,0-.05-2.37Z"/><path class="cls-1" d="M84.59,108.86a10.07,10.07,0,0,1-4.85,0A23.13,23.13,0,0,1,84.59,108.86Z"/><path class="cls-1" d="M78.33,109.15c-.82,1.17-2,.52-3,.59A5.19,5.19,0,0,1,78.33,109.15Z"/><path class="cls-1" d="M59.15,10.06c1-1,2.18-.62,3.33-.58A10.74,10.74,0,0,1,59.15,10.06Z"/><path class="cls-1" d="M92.08,86.26a2,2,0,0,1-.1,3.06l-.21-.25a2.5,2.5,0,0,0,.08-2.52Z"/><path class="cls-1" d="M66.71,109.74a6.45,6.45,0,0,1-3.72-.62A8.79,8.79,0,0,1,66.71,109.74Z"/><path class="cls-1" d="M123.37,74.83c-.11-.61.08-1.31-.52-1.78a1.67,1.67,0,0,1,.67-1.15A4.05,4.05,0,0,1,123.37,74.83Z"/><path class="cls-1" d="M63.79,86.33c-.51-.45-1.19-.11-1.91-.46.91-.77,1.56-.28,2.21.18Z"/><path class="cls-1" d="M12.47,51.34c.1-.66-.48-1.55.66-1.84A3.22,3.22,0,0,1,12.47,51.34Z"/><path class="cls-1" d="M11.09,55.94c.08-.67-.5-1.54.59-1.91A3.7,3.7,0,0,1,11.09,55.94Z"/><path class="cls-1" d="M90.2,79.17c0-.17,0-.33,0-.5.43-.3.84-.16,1.35-.06C91.23,79.38,90.58,78.93,90.2,79.17Z"/><path class="cls-1" d="M54.44,79c.34-.52.74-.6,1.31-.1l-1.06.33Z"/><path class="cls-1" d="M112.54,66.24c.79.41.67,1.12.63,1.81A2.89,2.89,0,0,1,112.54,66.24Z"/><path class="cls-1" d="M13.18,49.3c-.1-.65,0-1.23.65-1.54A2.27,2.27,0,0,1,13.18,49.3Z"/><path class="cls-1" d="M12.07,52.64c-.54-.55-.39-.89.33-1A1.06,1.06,0,0,1,12.07,52.64Z"/><path class="cls-1" d="M60.19.3c-.53.68-1.25.32-1.9.34C58.86.2,59.54.35,60.19.3Z"/><path class="cls-1" d="M58.12.66c-.53.63-1.23.32-1.88.33C56.81.53,57.48.68,58.12.66Z"/><path class="cls-1" d="M19,63.44c.66.52.33,1.23.36,1.87C18.87,64.75,19.05,64.08,19,63.44Z"/><path class="cls-1" d="M18.74,61.36c.54.59.24,1.29.26,2A2.51,2.51,0,0,1,18.74,61.36Z"/><path class="cls-1" d="M56,1.05c-.32.44-.77.34-1.2.29A1.41,1.41,0,0,1,56,1.05Z"/><path class="cls-1" d="M111.85,63.11c.39.34.29.77.25,1.2A1.18,1.18,0,0,1,111.85,63.11Z"/><path class="cls-1" d="M88.27,109.42c-.43,0-.88.15-1.22-.25A1.29,1.29,0,0,1,88.27,109.42Z"/><path class="cls-1" d="M20.06,59.61a.81.81,0,0,1-.29-.83A.73.73,0,0,1,20.06,59.61Z"/><path class="cls-1" d="M64.11,89c-.17.23-.37.39-.66.16l.39-.45Z"/><path class="cls-1" d="M92,89.32c-.16.26-.35.43-.66.17l.45-.42Z"/><path class="cls-1" d="M115,64.83a.63.63,0,0,1-.37-.69Z"/><path class="cls-1" d="M113.23,68.34a.72.72,0,0,1,.3.73A.69.69,0,0,1,113.23,68.34Z"/><path class="cls-1" d="M54.33,87.11l.42.7a.22.22,0,0,0-.16.25l-.54-.7Z"/><path class="cls-1" d="M112.2,64.85a.84.84,0,0,1,.24.88A.85.85,0,0,1,112.2,64.85Z"/><path class="cls-1" d="M114.6,64.14a.67.67,0,0,1-.35-.7A.67.67,0,0,1,114.6,64.14Z"/><path class="cls-1" d="M13.89,47.58a.75.75,0,0,1,.29-.87A.89.89,0,0,1,13.89,47.58Z"/><path class="cls-1" d="M91.85,86.55l-.54-.25c.24-.36.51-.2.77,0C92,86.36,91.93,86.45,91.85,86.55Z"/><path class="cls-1" d="M115.69,66.57c-.38-.17-.39-.5-.35-.84A1,1,0,0,1,115.69,66.57Z"/><path class="cls-1" d="M64,111.58a.76.76,0,0,1,.86-.31C64.7,111.6,64.36,111.58,64,111.58Z"/><path class="cls-1" d="M63.34,111.89a.7.7,0,0,1,.71-.31A.65.65,0,0,1,63.34,111.89Z"/><path class="cls-1" d="M14.23,46.54l.28-.52Z"/><path class="cls-1" d="M45.65,88.81l.17.37h-.4Z"/><path class="cls-1" d="M114.26,63.45l-.32-.48Z"/><path class="cls-1" d="M113.86,62.76l-.27-.47Z"/><path class="cls-1" d="M123,75.39l.39-.44C123.39,75.21,123.21,75.32,123,75.39Z"/><path class="cls-1" d="M113.6,69.38l.24.49Z"/><path class="cls-1" d="M122.85,73.09a.4.4,0,0,1-.31.45Z"/><path class="cls-1" d="M113.16,61.36l-.26-.51Z"/><path class="cls-1" d="M115.22,65.19l-.26-.37Z"/><path class="cls-1" d="M113.49,62.06l-.26-.44Z"/><polygon class="cls-1" points="112.85 101.1 112.89 101.06 112.85 101.11 112.85 101.1"/><path class="cls-1" d="M106.11,97.6c-.11.21-.33.43-.51.27s0-.5.17-.69Z"/><path class="cls-1" d="M35.81,42.9c-.12.33-.32.39-.61.21l.39-.45A1.7,1.7,0,0,0,35.81,42.9Z"/><path class="cls-1" d="M36.26,42.65l-.45.25a1.7,1.7,0,0,1-.22-.24l.31-.31Z"/></g></g></svg>