<svg xmlns="http://www.w3.org/2000/svg" viewBox="0 0 500 500"><g id="freepik--Floor--inject-2"><g id="freepik--floor--inject-2"><path id="freepik--floor--inject-2" d="M77.66,243c-95.18,54.95-95.17,144.05,0,199s249.49,54.95,344.67,0,95.17-144,0-199S172.84,188,77.66,243Z" style="fill:#f5f5f5"></path></g></g><g id="freepik--characters-2--inject-2"><path id="freepik--Background--inject-2" d="M376.22,54.6C323.58,24.41,215,9.82,109.7,89.12,43.83,138.71,26.84,229.88,58.53,292c24.68,48.32,84.08,86.24,167,91.82,37.78,2.55,144.9-3.5,201.56-78.74C476.27,239.67,467.61,107,376.22,54.6Z" style="fill:#37474f"></path><path id="freepik--Character--inject-2" d="M357.37,340.29a263.21,263.21,0,0,0-2.2-29.88s-.15-41.31-2.71-81.32c.34-.18.51-.29.51-.29s-.29-12.55-.36-24.14c0-1.53,0-3.24.12-5,2.06,1.81,3.81,3.4,4.74,4.37a22.71,22.71,0,0,0,9.11,5.73c7.08,5.71,14.45,3.05,16.93.6s2.16-7,1.39-9.41.52-5.67-2.06-9.54a11.34,11.34,0,0,0-2.74-2.59c-.56-1.41-1.17-2.89-1.87-4.45-2-4.53-9-18-11.72-23.74-5.39-11.2-7.17-14.5-20.21-17.9-1.25-.33-2.5-1-3.71-1.41a20,20,0,0,1-3.82-1.82,5,5,0,0,1-.9-.69l-1.61-1.52a44,44,0,0,0-3.83-3.26c-.47-.35-1.31-.65-1.66-1.11-.64-.82-.26-2.26-.25-3.2,0-.59,0-1.17,0-1.76a5,5,0,0,0,1.83-2c.47-1,1.09-2.09,1.79-3.78a6,6,0,0,0,3-.77,8.09,8.09,0,0,0,3.5-11,4.88,4.88,0,0,0-2.55-2.47c1.29-6.92.93-10,0-11.7A8.45,8.45,0,0,0,333.54,92c-1.08-5.36-8.11-9.15-12.46-10.54-5.92-1.9-12-.52-17.55,1.77a12.91,12.91,0,0,1-6.22,1.27c-.93-.11-2-.57-2.15-1.49a3.08,3.08,0,0,0-1.32,2,8.09,8.09,0,0,0,.58,5.62,3,3,0,0,0-1.93,1.5,8,8,0,0,0-.47,7.48,7.86,7.86,0,0,0,3.19,3.6c-.77,7.57-.64,16.23.59,21.24,1.29,5.28,4.67,7.93,8.63,8.44a26.71,26.71,0,0,0,3.87.28,4.09,4.09,0,0,1-.05,1.71c-.23.46-.86.57-1.26.85a11,11,0,0,0-2,1.82l-12.6,4.13c-7.66,1.73-11.61,3.56-15.66,9.26-3.17,4.46-14.29,22.59-19.09,31.43,0-.1,0-.17,0-.17l.65-1.26a2.68,2.68,0,0,0-.37-.12,1.66,1.66,0,0,0-.91,0,3.44,3.44,0,0,0-1.7,1.78,8.18,8.18,0,0,0-.57,2.13,9.35,9.35,0,0,1-.49,1.94c-.15.35-.4.68-.58,1a7.63,7.63,0,0,0-.86,3.25,4.74,4.74,0,0,0,.23,2,4.89,4.89,0,0,0,1,1.5,10.9,10.9,0,0,0,1.44,1.28c1.12,2.41,3.29,5.37,7,9.74,5.65,6.71,11.77,14.82,13.77,17.21.93,1.13,0,3.43-.5,4.8a5.9,5.9,0,0,0-.3,1.57.8.8,0,0,1-.13.13,1.75,1.75,0,0,0-1.93-.83,2.48,2.48,0,0,0-1,.69.67.67,0,0,0-.92-.12c-.73.57-1.86,1.85-3.2,3.15-2.35,2.28-1.72,2.76-.6,6.64.45,1.55,1.66,2,6.34,2.9,4.22.83,5.79.39,10.26-3.27-.19,24.18.17,52.32,1.18,69.61.62,10.61,3.65,67.63,3.65,67.63a19.37,19.37,0,0,0,1.46,1.31c-.63,1.06-1.3,2.14-2,3.24-.21,0-.42,0-.64,0a.27.27,0,0,0-.19.13c8.37-1.33,17.1-3.08,26-5.33,1-8.75,3.8-34.86,4.29-42.17a123.71,123.71,0,0,0-1.1-23.48l2.29-18.64s3,18.3,5.73,35.84c1.87,11.94,5,29.51,7.42,43a239.92,239.92,0,0,0,24.7-9.69C357.24,352.68,357.42,345.48,357.37,340.29Zm-73.12-130.7c-2.46-4.59-5.45-10.37-7.14-13.66a1.25,1.25,0,0,0,.52-.78c.05-.43-.26-.83-.24-1.26a3.29,3.29,0,0,1,.29-.85,1.63,1.63,0,0,0-.28-1.14l7.24-10C284.49,189.63,284.35,200.4,284.25,209.59Z" style="fill:#263238"></path><path id="freepik--character--inject-2" d="M430.65,299.94c-.12-6.73-.44-17.73-1.47-35.3-.19-3.36-.39-6.4-.6-9.18,1.77-.86,3.25-2.12,3.35-4.23.13-3.15-.75-6.9-1.19-10.06s-1.23-6.53-1.91-9.81l.52.17c6.09,1.91,10.23.77,12-.67s2.54-4.73,2.15-11.78-3.42-26-5.18-34.13-2-10.18-5-14.94-7.05-5.26-9.84-5.7c-1.68-.26-2.86-.41-3.54-.5L407.18,162v.26l.3-8.29c1.66-1.12,3.72-1.5,5.64-2.12s4.13-1.86,4.75-3.9a3.88,3.88,0,0,1-.93,3.4,9.78,9.78,0,0,0,6.41-6,14.13,14.13,0,0,0,.22-8.93c-.44-1.58-1.1-3.1-1.54-4.69-.67-2.4-.17-4.84.19-7.24a8.83,8.83,0,0,0-.91-5.61,10.73,10.73,0,0,0-9.08-6.24c-.12,0-1.21-2.37-1.38-2.63a15.7,15.7,0,0,0-9.23-7.16,19.38,19.38,0,0,0-10.25.12c-1.51.41-3,.92-4.51,1.47a16.43,16.43,0,0,1-4.65.65c-5.2.37-10.45,2.91-13.05,7.43a18.52,18.52,0,0,0-2.12,8.61,15.3,15.3,0,0,0,2.11,7.9,8,8,0,0,1,2.25-4.56,10.92,10.92,0,0,0,.09,4.59,5.67,5.67,0,0,0,1.49,2.5,17.88,17.88,0,0,0,.52,3.81,5.47,5.47,0,0,0,1,1.85c-.93,7.71,1.76,14.44,3.85,16.47,1.75,1.72,5.08,2.94,9.09,2.83l-.15,4.29-9.39,1.66c-7.47,5.89-16.27,16.43-16.61,24.4a41.8,41.8,0,0,0,1.39,13.34s.85,16.5-.82,25.09q-1.87,9.69-3.7,19.38c-.51,2.69.26,4.23,2.43,6a11.6,11.6,0,0,0,1.07.77c-2.57,21.46-3.95,44.2-3.86,55.65.08,9.4,1.74,32.12,3.24,50.8a198.26,198.26,0,0,0,28.44-16.72c.08-.7.17-1.39.25-2,1.86-15.2-.2-24.75-.2-24.75l4-27.84s5.36,29.56,8.17,45.12A165.67,165.67,0,0,0,427.05,305Q428.91,302.56,430.65,299.94Z" style="fill:#263238"></path><g id="freepik--character--inject-2"><path d="M307.24,374.87c-.12-3.83,0-12.71-.62-44.41-.26-13.89-1.13-23-2.26-30,.16-.09.32-.16.47-.25q-.91-4.65-1.82-9.28c-.3-1.52-.73-3.08-.88-4.62a3.4,3.4,0,0,1,1.22-3.18,6.27,6.27,0,0,1,2.94-1c2.73-.36,5.5-.26,8.25-.47a20.79,20.79,0,0,0,4.08-.66c1.16-.32,2-.5,2.75-1.58a9.6,9.6,0,0,0,1.2-3.65c0-.1,0-.2,0-.29,0-.28.07-.55.1-.84,1.55-12.33-5.32-29.89-8.35-37.83-2.63-6.91-4.87-9.79-9.86-11.32V186.13a15.09,15.09,0,0,0-13.42-15,7.64,7.64,0,0,0-6.61-.24c-3.23-2.7-8.75-3.93-17-3.47-6.73.36-17.62,4.13-21.22,14.21-1.58,4.43-1.92,12.84,4.35,16.52-.21,9.56,2.28,13.55,5.09,16,1.85,1.58,4.58,2.6,8.82,2.62l-.13,4.15c-1.2.24-2.55.5-4,.71a18.7,18.7,0,0,0-7.23,3.26,22,22,0,0,0-5.28,5.79,49.92,49.92,0,0,0-2.62,4.48,29.64,29.64,0,0,0-3.18,10.29c-.24,1.63-.43,3.27-.6,4.91-1.74,17.16-1.69,39.92-2.34,49.06l.32.18c-1.83,26.73-3,58.54-3,73.24,0,3.08.13,7,.36,11.39a295.3,295.3,0,0,0,30.32-1.28c-.16-1.26-.29-1.92-.29-1.92l4.35-30.25s3.26,16.63,6.18,31.06a303.35,303.35,0,0,0,30-5.28C307.31,375.91,307.26,375.36,307.24,374.87Z" style="fill:#263238"></path><path d="M271.75,350.65l-.6-3.06-4.78,33.33v.18s.13.67.28,1.87l1.05-.1c-.12-1-.23-1.66-.27-1.88l3.89-27.09c1.07,5.45,3.42,17.31,5.57,28l1.06-.13C275.05,367.42,271.8,350.9,271.75,350.65Z" style="fill:#37474f"></path><path d="M307.68,368.3c-.05-6-.14-17.16-.53-37.85a217.68,217.68,0,0,0-2.2-29.69l.15-.09.33-.18-.61-3.06c-.5-2.51-1-5-1.48-7.54-.24-1.23-.49-2.45-.7-3.68a2.6,2.6,0,0,1,.6-2.38,3.71,3.71,0,0,1,1.84-.71,51.11,51.11,0,0,1,5.8-.6l3.5-.23a20.37,20.37,0,0,0,3.32-.27c1.61-.38,3.15-.81,4.11-2.28a10.08,10.08,0,0,0,1.28-3.86.88.88,0,0,0,0-.17l0-.13c0-.28.08-.57.1-.85,1.53-12.14-5-29.23-8.14-37.45l-.23-.62c-2.75-7.2-5.09-10-9.84-11.53v-39a15.56,15.56,0,0,0-13.79-15.49,8.15,8.15,0,0,0-6.68-.34c-3.46-2.72-9.06-3.83-17.11-3.39-6.24.34-17.84,3.79-21.69,14.56-1.69,4.74-1.91,13.1,4.31,17-.16,10.1,2.74,13.89,5.29,16.06,2,1.74,4.86,2.64,8.61,2.74l-.09,3.19c-.93.19-2.19.43-3.54.63a19.21,19.21,0,0,0-7.44,3.34,22.24,22.24,0,0,0-5.42,5.93,34.89,34.89,0,0,0-2.14,3.58l-.51.94a29.65,29.65,0,0,0-3.24,10.47c-.22,1.46-.41,3-.61,4.94-1.11,11-1.49,24.24-1.79,34.87-.17,5.86-.32,10.93-.55,14.2l0,.32.27.17.05,0c-1.83,26.81-3,58.69-3,72.94,0,3.07.13,7,.36,11.38h1.06c-.23-4.39-.37-8.31-.37-11.39,0-14.3,1.14-46.35,3-73.2l0-.33-.32-.19c.22-3.3.36-8.23.52-13.91.3-10.61.68-23.81,1.79-34.8.2-1.89.39-3.44.6-4.88a29,29,0,0,1,3.12-10.12l.52-.94a36.27,36.27,0,0,1,2.07-3.48c1.35-1.9,3-4.26,5.14-5.66a18.31,18.31,0,0,1,7-3.18c1.58-.23,3-.52,4-.72l.41-.08.15-5.1h-.54c-3.76,0-6.54-.84-8.48-2.49-2.4-2.05-5.12-5.66-4.91-15.54v-.31l-.27-.16c-5.89-3.46-5.65-11.58-4.11-15.89,3.66-10.24,14.77-13.53,20.75-13.86,7.86-.42,13.45.7,16.63,3.36l.26.21.3-.14a7.08,7.08,0,0,1,6.15.23l.18.06a14.52,14.52,0,0,1,13,14.45v39.78l.37.11c4.63,1.42,6.85,4,9.53,11l.24.63c3.1,8.13,9.57,25.06,8.07,37,0,.28-.06.55-.1.8a1.1,1.1,0,0,1,0,.18v.11a8.92,8.92,0,0,1-1.13,3.45c-1.55,2.4-5.61,2-8.05,2.1-1.72.07-3.43.08-5.15.21a9.78,9.78,0,0,0-4.8,1.18,2.29,2.29,0,0,0-.74.68,2,2,0,0,0-.22.52,10.31,10.31,0,0,0,.14,5.2c.55,2.86,1.12,5.73,1.69,8.59l.45,2.3-.46.25.06.37a212.55,212.55,0,0,1,2.25,29.91c.39,20.69.48,31.85.53,37.84,0,3.27.05,5.24.09,6.57,0,.53.08,1.11.16,1.77l1-.24a13.82,13.82,0,0,1-.14-1.56C307.73,373.53,307.71,371.56,307.68,368.3Z" style="fill:#37474f"></path></g><g id="freepik--character--inject-2"><path d="M432.63,276.56c-1.14-2.91-2.43-6.07-3.8-9.32.14-.21.21-.34.21-.34s-6-13.95-9.44-22c-5.15-11.95-9.37-15-21.06-17.93-3.42-.76-8.15-1.83-14.73-3l.07-9.87A54,54,0,0,0,387,209.5a5.19,5.19,0,0,0,3.24-1.45c3.34-3.16,3.33-7.63,1.5-10.14l0,0a14.45,14.45,0,0,0,1.41-4c1.51-6.46,1.95-19.9-13.31-25.34-12.16-4.33-21.32-3.33-25.63,1.9-.66-.11-1.26-.21-1.78-.28-7.5-1.13-9.54.22-9.81,1.34-.07.26-.36,1.47-.44,1.77a1.31,1.31,0,0,0,0,.39.09.09,0,0,1,0,0,1,1,0,0,0,.08.32c.85,1.94,6.42,6,6.42,6-1.53,4.1-1.13,6.92.14,8.66a76,76,0,0,0-1.43,11.43c-.61,10.09,1.82,14.61,5.47,16.46a22.12,22.12,0,0,0,9.87,2.28l-.08,3.52c-3.56,0-7.1-.42-10.35,1.13-12.26,5.81-14,19.9-14.79,32-1,16.13-.58,50.49-.58,50.49a2.81,2.81,0,0,0,.28.49c-1.17,18.79-1.31,42.84-1.07,61.77,28.42-9.91,56.92-25.57,79.72-49.94,6.27-8.59,14.75-21.35,16.87-25.95C435.64,286.06,435.45,283.76,432.63,276.56ZM404.23,304c-.06-4.85,0-10.88,0-15.72-.05-5,.18-10.54.46-15.27.93,2,1.5,3.26,1.5,3.26a3.8,3.8,0,0,0,1.08.28l3.91,8.34,0,0,.86,1.75S409.2,293,404.23,304Z" style="fill:#263238"></path><path d="M407.59,276.08l-.28,0a5.28,5.28,0,0,1-.77-.17l-2.29-5-.12,2.1c-.35,5.8-.51,11-.47,15.31,0,2.23,0,4.7,0,7.2,0,2.94,0,5.9,0,8.53l0,2.39,1-2.18c5-11.05,7.74-17.35,7.74-17.35l.1-.22-.77-1.59,0,0Zm-2.85,25.52c0-2,0-4.05,0-6.11,0-2.5,0-5,0-7.21,0-3.79.08-8.19.34-13.11l.69,1.5.17.09a3.7,3.7,0,0,0,.95.28l3.62,7.72,0,0,.93,1.89C410.9,287.8,408.57,293.05,404.74,301.6Z" style="fill:#37474f"></path><path d="M433.12,276.37c-1.06-2.73-2.31-5.78-3.7-9.08l.08-.13.13-.23-.1-.24s-6-13.95-9.45-22c-5.35-12.43-9.82-15.32-21.43-18.23l-.49-.11c-3.29-.74-7.77-1.74-13.82-2.78l.06-9.26.49-.67c.67-.93,1.5-2.08,2.43-3.66a5.64,5.64,0,0,0,3.28-1.56,8.5,8.5,0,0,0,1.77-10.54l.06-.11a14.78,14.78,0,0,0,1.26-3.71c1.07-4.57,3.25-19.94-13.64-26-11.87-4.23-21.33-3.56-26,1.82l-1.49-.24c-8.39-1.25-10.12.56-10.42,1.81-.09.34-.35,1.41-.42,1.68a1.87,1.87,0,0,0-.05.65,1.47,1.47,0,0,0,.11.48c.79,1.8,5,5,6.27,6-1.54,4.42-.78,7.08.22,8.58a77.37,77.37,0,0,0-1.4,11.28c-.55,9.17,1.33,14.72,5.77,17a22.28,22.28,0,0,0,9.56,2.32l-.06,2.48-1.3,0c-2.92-.06-5.95-.12-8.76,1.21C339.63,229,337.75,242.92,337,255.51c-1,16-.59,50.19-.58,50.53l0,.2a2.68,2.68,0,0,0,.23.43c-1.15,18.72-1.29,42.92-1.05,61.81l1.05-.37c-.23-18.87-.09-42.94,1.06-61.54v-.18l-.09-.14a3.1,3.1,0,0,1-.2-.34c0-2.22-.38-34.87.58-50.33.77-12.29,2.58-25.88,14.49-31.52,2.59-1.23,5.36-1.17,8.29-1.11.61,0,1.22,0,1.84,0h.51l.11-4.57h-.53a21.7,21.7,0,0,1-9.64-2.22c-4-2-5.71-7.26-5.18-16a75.42,75.42,0,0,1,1.42-11.35l.05-.23-.14-.19c-1.35-1.85-1.37-4.67-.08-8.17l.14-.38-.32-.23c-1.52-1.1-5.6-4.28-6.25-5.76a1.57,1.57,0,0,1,0-.2.78.78,0,0,1,0-.22c.07-.28.34-1.37.44-1.79.06-.23.79-2.21,9.22-.94l1.77.28.3.05.2-.23c4.31-5.24,13.44-5.87,25.05-1.74,16.06,5.72,14,20.37,13,24.72a13,13,0,0,1-1.18,3.47c-.08.18-.15.32-.2.45l.43.15-.39.31c1.71,2.35,1.63,6.53-1.45,9.45A4.61,4.61,0,0,1,387,209l-.29,0-.14.24A40.75,40.75,0,0,1,384,213l-.59.83-.09.13-.08,10.48.45.08c6.25,1.06,10.85,2.09,14.21,2.84l.48.11c11.21,2.81,15.53,5.6,20.7,17.62,3.19,7.4,8.52,19.82,9.34,21.73l-.06.09-.16.24.11.25c1.43,3.4,2.71,6.53,3.8,9.31,2.84,7.27,2.86,9.44.1,15.44-2.43,5.26-13.16,21.17-19.37,29.27q3.11-3.15,6.06-6.5c5.82-8.22,12.42-18.33,14.27-22.33C436.26,286,435.89,283.45,433.12,276.37Z" style="fill:#37474f"></path></g></g><g id="freepik--Shadows--inject-2"><path id="freepik--Shadow--inject-2" d="M396.36,412c9.78,5.71,9.78,15,0,20.69s-25.64,5.71-35.42,0-9.78-15,0-20.69S386.58,406.33,396.36,412Z" style="fill:#e0e0e0"></path><ellipse id="freepik--shadow--inject-2" cx="111.03" cy="421.79" rx="63.35" ry="36.57" style="fill:#e0e0e0"></ellipse><polygon id="freepik--shadow--inject-2" points="168.01 488.25 110.58 455.09 186.42 411.35 243.79 444.47 168.01 488.25" style="fill:#e0e0e0"></polygon><ellipse id="freepik--shadow--inject-2" cx="246.7" cy="415.34" rx="18.8" ry="10.85" style="fill:#e0e0e0"></ellipse></g><g id="freepik--Plant--inject-2"><g id="freepik--plant--inject-2"><g id="freepik--Pot--inject-2"><path d="M363.62,425.77c-8-8.3-12.76-29.26-4.92-35.84h39.9c7.84,6.58,3.12,27.53-4.91,35.83l-.22.23-.28.27c-.22.22-.47.44-.72.65l-.2.16c-.19.15-.39.31-.6.46a10.12,10.12,0,0,1-1,.67c-6.62,3.86-17.34,3.86-23.95,0h0c-.35-.2-.7-.43-1.05-.67-.2-.14-.38-.29-.56-.44l-.24-.18c-.25-.21-.48-.42-.7-.63l-.32-.32Z" style="fill:#37474f"></path><path d="M395.14,387.28c9.1,5.32,9.1,13.93,0,19.25s-23.87,5.31-33,0-9.1-13.93,0-19.25S386,382,395.14,387.28Z" style="fill:#455a64"></path><path d="M390.76,389.84c6.68,3.9,6.68,10.23,0,14.13s-17.53,3.9-24.21,0-6.69-10.23,0-14.13S384.07,385.93,390.76,389.84Z" style="fill:#263238"></path><path d="M366.55,396.54c6.68-3.9,17.52-3.9,24.21,0a11.08,11.08,0,0,1,4,3.72,11.06,11.06,0,0,1-4,3.71c-6.69,3.9-17.53,3.9-24.21,0a11.18,11.18,0,0,1-4-3.71A11.2,11.2,0,0,1,366.55,396.54Z" style="fill:#fff"></path></g><path d="M373.19,358.19c-2.69,3.4-10.78,4.9-14.81-3.43-3.79-7.82-7.79-15.2-9-18.08a3.06,3.06,0,0,1,1.65-4.09s-.1-4.44,7.63-2,13.37,6.57,17.21,13.69S378.14,356.82,373.19,358.19Z" style="fill:#109646"></path><g style="opacity:0.5"><path d="M373.19,358.19c-2.69,3.4-10.78,4.9-14.81-3.43-3.79-7.82-7.79-15.2-9-18.08a3.06,3.06,0,0,1,1.65-4.09s-.1-4.44,7.63-2,13.37,6.57,17.21,13.69S378.14,356.82,373.19,358.19Z" style="fill:#fff"></path></g><path d="M377.31,369.3a39.9,39.9,0,0,0-1-4.43A63.19,63.19,0,0,0,363.25,341a54.58,54.58,0,0,0-7.43-7.23c-.08-.07-.13.11-.07.16a66.59,66.59,0,0,1,19.3,30.27c.49,1.6,1,3.22,1.4,4.84s.73,3.33,1.14,5c0,.17.31.25.3,0A30.76,30.76,0,0,0,377.31,369.3Z" style="fill:#109646"></path><path d="M377.31,369.3a39.9,39.9,0,0,0-1-4.43A63.19,63.19,0,0,0,363.25,341a54.58,54.58,0,0,0-7.43-7.23c-.08-.07-.13.11-.07.16a66.59,66.59,0,0,1,19.3,30.27c.49,1.6,1,3.22,1.4,4.84s.73,3.33,1.14,5c0,.17.31.25.3,0A30.76,30.76,0,0,0,377.31,369.3Z" style="opacity:0.30000000000000004"></path><path d="M382,352.22c-7,2.17-12.24-3.31-10.44-11.9s10.84-18.14,14.25-15.58c2.13-2.12,6.82-1.36,9,5.62S395,355.26,382,352.22Z" style="fill:#109646"></path><g style="opacity:0.30000000000000004"><path d="M382,352.22c-7,2.17-12.24-3.31-10.44-11.9s10.84-18.14,14.25-15.58c2.13-2.12,6.82-1.36,9,5.62S395,355.26,382,352.22Z" style="fill:#fff"></path></g><path d="M386.08,330a94.37,94.37,0,0,0-4.66,15.44,149.85,149.85,0,0,0-2.71,16.17c-1.26,10.5-1.48,9.92-1.41,20.48,0,2.93.06,5.85.12,8.78s0,6.05.26,9c.1,1.15,1.74.85,1.76-.21.1-5.26-.19-10.55-.24-15.81s0,.79.1-4.41a218,218,0,0,1,2.84-31.65c.5-2.91,1.05-5.82,1.73-8.7s1.59-6,2.39-9C386.29,330,386.15,329.81,386.08,330Z" style="fill:#109646"></path><path d="M386.08,330a94.37,94.37,0,0,0-4.66,15.44,149.85,149.85,0,0,0-2.71,16.17c-1.26,10.5-1.48,9.92-1.41,20.48,0,2.93.06,5.85.12,8.78s0,6.05.26,9c.1,1.15,1.74.85,1.76-.21.1-5.26-.19-10.55-.24-15.81s0,.79.1-4.41a218,218,0,0,1,2.84-31.65c.5-2.91,1.05-5.82,1.73-8.7s1.59-6,2.39-9C386.29,330,386.15,329.81,386.08,330Z" style="opacity:0.30000000000000004"></path><path d="M365.72,375.45c-.9,4.54-7.13,7.82-14.32,4.84S330,358.62,336.49,356.56c-.35-3.4,19.25-6.19,28.94,5.76C372.48,371,365.72,375.45,365.72,375.45Z" style="fill:#109646"></path><g style="opacity:0.7000000000000001"><path d="M365.72,375.45c-.9,4.54-7.13,7.82-14.32,4.84S330,358.62,336.49,356.56c-.35-3.4,19.25-6.19,28.94,5.76C372.48,371,365.72,375.45,365.72,375.45Z" style="fill:#fff"></path></g><path d="M376,382.19a34.09,34.09,0,0,0-2.92-3.21,85.08,85.08,0,0,0-21.78-15.66,77.79,77.79,0,0,0-9.16-4.17c-.09,0-.06.13,0,.16,2.62,1.24,5.24,2.44,7.77,3.85s5.15,3.09,7.62,4.81a111.68,111.68,0,0,1,13.39,11c1.19,1.14,2.31,2.34,3.51,3.46s2.57,2.24,3.76,3.46c.17.18.48.1.29-.16C377.64,384.54,376.88,383.33,376,382.19Z" style="fill:#109646"></path><path d="M376,382.19a34.09,34.09,0,0,0-2.92-3.21,85.08,85.08,0,0,0-21.78-15.66,77.79,77.79,0,0,0-9.16-4.17c-.09,0-.06.13,0,.16,2.62,1.24,5.24,2.44,7.77,3.85s5.15,3.09,7.62,4.81a111.68,111.68,0,0,1,13.39,11c1.19,1.14,2.31,2.34,3.51,3.46s2.57,2.24,3.76,3.46c.17.18.48.1.29-.16C377.64,384.54,376.88,383.33,376,382.19Z" style="opacity:0.30000000000000004"></path><path d="M405.54,370c-.12-2.56-13-2.43-19.06,2.43s-6.76,9.63-3,11.29c-.66,5.4,7.87,9,15.51,2.2S408.29,370.5,405.54,370Z" style="fill:#109646"></path><path d="M405.54,370c-.12-2.56-13-2.43-19.06,2.43s-6.76,9.63-3,11.29c-.66,5.4,7.87,9,15.51,2.2S408.29,370.5,405.54,370Z" style="fill:#fff;opacity:0.30000000000000004"></path><path d="M392.83,376.73a31.65,31.65,0,0,0-14.24,12.52c-.2.31.29.92.5.58a37,37,0,0,1,13.75-13S392.89,376.71,392.83,376.73Z" style="fill:#109646"></path><path d="M392.83,376.73a31.65,31.65,0,0,0-14.24,12.52c-.2.31.29.92.5.58a37,37,0,0,1,13.75-13S392.89,376.71,392.83,376.73Z" style="opacity:0.30000000000000004"></path><path d="M384.25,392c-4.36,4.29.46,9.6,7.55,12.23a25.3,25.3,0,0,0,18.33-.85c3.42-1.7,4.12-2.56,4.12-2.56a43.57,43.57,0,0,0-3.61-8.67,18.18,18.18,0,0,0-17.87-8.21C383.7,385.1,383,388.87,384.25,392Z" style="fill:#109646"></path><g style="opacity:0.5"><path d="M384.25,392c-4.36,4.29.46,9.6,7.55,12.23a25.3,25.3,0,0,0,18.33-.85c3.42-1.7,4.12-2.56,4.12-2.56a43.57,43.57,0,0,0-3.61-8.67,18.18,18.18,0,0,0-17.87-8.21C383.7,385.1,383,388.87,384.25,392Z" style="fill:#fff"></path></g><path d="M402.58,395.22a45.9,45.9,0,0,0-11.1-4.11c-3.8-.73-8.47-.76-11.54,1.94-1.2,1.05-2.78,3.32-1.81,4.93.09.16.57.46.68.14a15.52,15.52,0,0,1,1-3,6.05,6.05,0,0,1,2.37-2.23,14,14,0,0,1,8-1.37c4.32.41,8.39,2.15,12.37,3.78C402.62,395.34,402.62,395.24,402.58,395.22Z" style="fill:#109646"></path><path d="M402.58,395.22a45.9,45.9,0,0,0-11.1-4.11c-3.8-.73-8.47-.76-11.54,1.94-1.2,1.05-2.78,3.32-1.81,4.93.09.16.57.46.68.14a15.52,15.52,0,0,1,1-3,6.05,6.05,0,0,1,2.37-2.23,14,14,0,0,1,8-1.37c4.32.41,8.39,2.15,12.37,3.78C402.62,395.34,402.62,395.24,402.58,395.22Z" style="opacity:0.30000000000000004"></path><path d="M385.45,365c-1.09,3.83,3.81,7.42,9.9,5.36s12.42-3.95,17.61-4,8.49-3.48,7.42-5.78-2.33-7.78-15.56-9.34-19.2,3.11-22,6.76S383.25,365.61,385.45,365Z" style="fill:#109646"></path><g style="opacity:0.7000000000000001"><path d="M385.45,365c-1.09,3.83,3.81,7.42,9.9,5.36s12.42-3.95,17.61-4,8.49-3.48,7.42-5.78-2.33-7.78-15.56-9.34-19.2,3.11-22,6.76S383.25,365.61,385.45,365Z" style="fill:#fff"></path></g><path d="M410,356.9a16.54,16.54,0,0,0-4.27-.39,26.05,26.05,0,0,0-4.13.34,32.14,32.14,0,0,0-7.77,2.42c-4.65,2.06-9.27,4.75-12.29,8.94a29.72,29.72,0,0,0-3.89,7.29c-.18.5.78.78,1,.33a56.12,56.12,0,0,1,3.31-6.34,19.6,19.6,0,0,1,5.07-5.28,40.46,40.46,0,0,1,14-6.43,28.13,28.13,0,0,1,4.48-.65,39.64,39.64,0,0,1,4.49.16C410.27,357.3,410.18,356.94,410,356.9Z" style="fill:#109646"></path><path d="M410,356.9a16.54,16.54,0,0,0-4.27-.39,26.05,26.05,0,0,0-4.13.34,32.14,32.14,0,0,0-7.77,2.42c-4.65,2.06-9.27,4.75-12.29,8.94a29.72,29.72,0,0,0-3.89,7.29c-.18.5.78.78,1,.33a56.12,56.12,0,0,1,3.31-6.34,19.6,19.6,0,0,1,5.07-5.28,40.46,40.46,0,0,1,14-6.43,28.13,28.13,0,0,1,4.48-.65,39.64,39.64,0,0,1,4.49.16C410.27,357.3,410.18,356.94,410,356.9Z" style="opacity:0.30000000000000004"></path><path d="M374.6,386.6c-1-4-6-6.16-12.57-6.65a17.08,17.08,0,0,0-16.26,8.34c-3.42,5.85-4.84,10.51-2.77,11.27s10.87,2,16.54,2.48,12.75-.51,17.38-4.82S380,387.5,374.6,386.6Z" style="fill:#109646"></path><path d="M374.6,386.6c-1-4-6-6.16-12.57-6.65a17.08,17.08,0,0,0-16.26,8.34c-3.42,5.85-4.84,10.51-2.77,11.27s10.87,2,16.54,2.48,12.75-.51,17.38-4.82S380,387.5,374.6,386.6Z" style="fill:#fff;opacity:0.30000000000000004"></path><path d="M374.85,386.07a17.32,17.32,0,0,0-7.06-.32,31,31,0,0,0-6.67,1.53,43.39,43.39,0,0,0-6.6,3c-1.11.61-2.2,1.25-3.26,1.93a24.57,24.57,0,0,0-2.93,2s0,.17,0,.14c1.08-.48,2.08-1.16,3.11-1.74s2.22-1.23,3.35-1.81a48.21,48.21,0,0,1,6.54-2.77,31.14,31.14,0,0,1,6.93-1.48,41.81,41.81,0,0,1,6.62.16C375.38,386.73,375.12,386.16,374.85,386.07Z" style="fill:#109646"></path><path d="M374.85,386.07a17.32,17.32,0,0,0-7.06-.32,31,31,0,0,0-6.67,1.53,43.39,43.39,0,0,0-6.6,3c-1.11.61-2.2,1.25-3.26,1.93a24.57,24.57,0,0,0-2.93,2s0,.17,0,.14c1.08-.48,2.08-1.16,3.11-1.74s2.22-1.23,3.35-1.81a48.21,48.21,0,0,1,6.54-2.77,31.14,31.14,0,0,1,6.93-1.48,41.81,41.81,0,0,1,6.62.16C375.38,386.73,375.12,386.16,374.85,386.07Z" style="opacity:0.30000000000000004"></path></g></g><g id="freepik--Spotlight--inject-2"><polygon points="450.61 46.34 443.52 41.03 432.5 39.4 413.36 40.51 109.7 89.12 155.83 447.66 451.81 74.25 454.67 60.14 450.61 46.34" style="fill:#109646;opacity:0.30000000000000004"></polygon><g id="freepik--Lamp--inject-2"><polygon points="446.46 25.28 450.33 23.04 450.33 38.26 446.46 40.5 446.46 25.28" style="fill:#263238"></polygon><polygon points="446.46 25.28 450.33 23.04 450.33 38.26 446.46 40.5 446.46 25.28" style="opacity:0.1"></polygon><polygon points="430.14 44.1 434.27 60.98 418.8 68.87 411.54 43.96 430.14 44.1" style="fill:#455a64"></polygon><polygon points="438.32 64.23 423.53 74.01 423.35 75.21 446.49 80.5 449.66 64.68 438.32 64.23" style="fill:#109646"></polygon><polygon points="438.5 63.03 423.53 74.01 446.67 79.29 449.66 64.68 438.5 63.03" style="fill:#455a64"></polygon><path d="M457.81,33.48c4.63,2.68,8.39,9.19,8.39,14.54,0,2.65-.94,4.51-2.44,5.38l-9.92,5.73c-1.51.87-3.58.76-5.89-.58-4.64-2.67-8.39-9.18-8.39-14.53,0-2.66.93-4.52,2.44-5.39l9.91-5.73C453.42,32,455.5,32.15,457.81,33.48Z" style="fill:#263238"></path><path d="M451.9,35.24c5.43,3.13,9.84,10.76,9.84,17,0,3.11-1.1,5.28-2.86,6.31l-11.62,6.71c-1.77,1-4.2.88-6.91-.68-5.43-3.13-9.83-10.76-9.83-17,0-3.12,1.1-5.29,2.86-6.32L445,34.56C446.77,33.54,449.2,33.68,451.9,35.24Z" style="fill:#455a64"></path><path d="M440.35,41.91c5.43,3.13,9.84,10.76,9.84,17s-4.41,8.81-9.84,5.67-9.83-10.76-9.83-17S434.92,38.77,440.35,41.91Z" style="fill:#e0e0e0"></path><path d="M440.35,43.56c4.64,2.68,8.4,9.19,8.4,14.55S445,65.64,440.35,63,432,53.77,432,48.41,435.71,40.88,440.35,43.56Z" style="fill:#fff"></path><polygon points="450.61 46.34 443.16 48.29 450.73 74.49 451.81 74.24 453.58 60.38 450.61 46.34" style="fill:#109646"></polygon><polygon points="450.61 46.34 444.24 48.04 451.81 74.24 454.66 60.14 450.61 46.34" style="fill:#263238"></polygon><polygon points="443.37 42.12 436.28 43.68 413.2 41.6 413.36 40.51 432.34 40.48 443.53 41.03 443.37 42.12" style="fill:#109646"></polygon><polygon points="443.53 41.03 436.44 42.59 413.36 40.51 432.5 39.4 443.53 41.03" style="fill:#263238"></polygon><polygon points="461.95 52.21 465.83 49.98 465.83 31.99 450.33 23.04 446.46 25.28 461.95 34.23 461.95 52.21" style="fill:#263238"></polygon><path d="M463.89,51.09a4.41,4.41,0,0,0,1.94-3.5V32L450.34,23l-3.88,2.24L462,34.22V49.83C462,51.14,462.82,51.71,463.89,51.09Z" style="opacity:0.05"></path><path d="M463.89,49.55A2.36,2.36,0,0,0,465,47.7c0-.69-.48-1-1.07-.62a2.36,2.36,0,0,0-1.07,1.85C462.82,49.62,463.3,49.89,463.89,49.55Z" style="fill:#fff"></path></g></g><g id="freepik--Microphone--inject-2"><g id="freepik--microphone--inject-2"><g id="freepik--Stand--inject-2"><path d="M260.46,414.75a5.12,5.12,0,0,0-.1-1.1c-.66-4.1-5.08-7-8.34-8.16H241.39c-3.16,1-7.68,4.06-8.33,8.16a4.57,4.57,0,0,0-.11,1.1c0,.06,0,.19,0,.19.13,1.93,1.46,3.83,4,5.31,5.38,3.1,14.09,3.1,19.47,0,2.55-1.47,3.88-3.38,4-5.31A.87.87,0,0,0,260.46,414.75Z" style="fill:#37474f"></path><path d="M240.09,406.12c-3.65,2.11-3.65,5.53,0,7.64a14.62,14.62,0,0,0,13.23,0c3.66-2.11,3.66-5.53,0-7.64A14.62,14.62,0,0,0,240.09,406.12Z" style="fill:#455a64"></path><path d="M247.69,282.87a2.16,2.16,0,0,0-2,0,.7.7,0,0,0-.41.57V409.61a.71.71,0,0,0,.41.58,2.22,2.22,0,0,0,2,0,.71.71,0,0,0,.41-.58V283.44A.7.7,0,0,0,247.69,282.87Z" style="fill:#263238"></path><path d="M247.69,283.29a2.16,2.16,0,0,0-2,0l-.21.15h-.2v2.36a4.4,4.4,0,0,0,2.8,0v-2.32h-.2Z" style="opacity:0.25"></path><path d="M248.93,272.14a2,2,0,0,0-.39-.29,4.15,4.15,0,0,0-3.79,0,2,2,0,0,0-.39.29H244v11.4h0a1.32,1.32,0,0,0,.78,1.09,4.15,4.15,0,0,0,3.79,0,1.32,1.32,0,0,0,.78-1.09h0v-11.4Z" style="fill:#37474f"></path><path d="M245.53,271.54a3.18,3.18,0,0,0-.78.31,2,2,0,0,0-.39.29H244v11.4a1.32,1.32,0,0,0,.78,1.09,2.83,2.83,0,0,0,.78.31Z" style="opacity:0.25"></path><path d="M244.75,273.23a4.22,4.22,0,0,0,3.79,0,1.16,1.16,0,0,0,0-2.19,4.22,4.22,0,0,0-3.79,0A1.16,1.16,0,0,0,244.75,273.23Z" style="fill:#455a64"></path><path d="M248.36,274.35a.84.84,0,0,1,.85-.08l.56.32a.83.83,0,0,1,.35.78,2.68,2.68,0,0,1-1.2,2.09.85.85,0,0,1-.86.08l-.55-.32a.83.83,0,0,1-.36-.78A2.67,2.67,0,0,1,248.36,274.35Z" style="fill:#109646"></path><path d="M248.36,274.35a.84.84,0,0,1,.85-.08l.56.32a.83.83,0,0,1,.35.78,2.68,2.68,0,0,1-1.2,2.09.85.85,0,0,1-.86.08l-.55-.32a.83.83,0,0,1-.36-.78A2.67,2.67,0,0,1,248.36,274.35Z" style="fill:#109646"></path><path d="M248.92,274.67a2.67,2.67,0,0,0-1.21,2.09c0,.77.54,1.08,1.21.7a2.68,2.68,0,0,0,1.2-2.09C250.12,274.6,249.58,274.29,248.92,274.67Z" style="opacity:0.15"></path><path d="M247.9,233.79l-.21-.15a2.22,2.22,0,0,0-2,0l-.21.15h-.2V272h0a.69.69,0,0,0,.41.57,2.16,2.16,0,0,0,2,0,.69.69,0,0,0,.41-.57h0V233.79Z" style="fill:#263238"></path><path d="M245.71,234.36a2.16,2.16,0,0,0,2,0c.55-.31.55-.82,0-1.14a2.22,2.22,0,0,0-2,0C245.16,233.54,245.16,234.05,245.71,234.36Z" style="fill:#455a64"></path><path d="M248.75,231.32a2.09,2.09,0,0,0-.36-.26,3.73,3.73,0,0,0-3.38,0,2.09,2.09,0,0,0-.36.26h-.34v2.2h0a1.17,1.17,0,0,0,.7,1,3.73,3.73,0,0,0,3.38,0,1.17,1.17,0,0,0,.7-1h0v-2.2Z" style="fill:#109646"></path><path d="M245.7,230.79a2.48,2.48,0,0,0-.69.27,2.09,2.09,0,0,0-.36.26h-.34v2.2a1.17,1.17,0,0,0,.7,1,2.85,2.85,0,0,0,.69.28Z" style="opacity:0.25"></path><path d="M245,232.3a3.73,3.73,0,0,0,3.38,0,1,1,0,0,0,0-2,3.73,3.73,0,0,0-3.38,0A1,1,0,0,0,245,232.3Z" style="fill:#109646"></path><path d="M245,232.3a3.73,3.73,0,0,0,3.38,0,1,1,0,0,0,0-2,3.73,3.73,0,0,0-3.38,0A1,1,0,0,0,245,232.3Z" style="fill:#fff;opacity:0.30000000000000004"></path><path d="M226.21,164.87a9.68,9.68,0,0,0-15.62,11.45l6.33,8.64a9.68,9.68,0,0,0,15.62-11.45Z" style="fill:#455a64"></path><path d="M230.45,187a9.68,9.68,0,0,0,3.67-10.17c-1.62.92-9.8,5.64-11,6.29s-4.62-2.55-8.2-7.73-5.77-7.59-3.73-11.26a9.68,9.68,0,0,0-.57,12.15l6.33,8.64A9.67,9.67,0,0,0,230.45,187Z" style="fill:#263238"></path><polygon points="226.43 183.21 234.41 194.1 230.3 202.39 222.32 191.5 226.43 183.21" style="fill:#109646"></polygon><polygon points="226.43 183.21 234.41 194.1 230.3 202.39 222.32 191.5 226.43 183.21" style="opacity:0.2"></polygon><polygon points="234.41 194.1 244.55 188.25 236.57 177.36 226.43 183.21 234.41 194.1" style="fill:#109646"></polygon><polygon points="230.3 202.39 240.44 196.53 244.55 188.25 234.41 194.1 230.3 202.39" style="fill:#109646"></polygon><polygon points="230.3 202.39 240.44 196.53 244.55 188.25 234.41 194.1 230.3 202.39" style="opacity:0.35000000000000003"></polygon><path d="M248.29,231.49c0,1-3.14,1-3.14,0,0-11.81,0-25.2-8.33-35.26-.68-.83,1.74-2.83,2.42-2C248.29,205.16,248.29,219.76,248.29,231.49Z" style="fill:#263238"></path><path d="M248,228.58a.43.43,0,0,1,.42,0l.29.16a.44.44,0,0,1,.17.4,1.37,1.37,0,0,1-.6,1.05.45.45,0,0,1-.43,0l-.28-.16a.43.43,0,0,1-.18-.4A1.35,1.35,0,0,1,248,228.58Z" style="fill:#109646"></path><path d="M248,228.58a.43.43,0,0,1,.42,0l.29.16a.44.44,0,0,1,.17.4,1.37,1.37,0,0,1-.6,1.05.45.45,0,0,1-.43,0l-.28-.16a.43.43,0,0,1-.18-.4A1.35,1.35,0,0,1,248,228.58Z" style="fill:#109646"></path><path d="M248.25,228.75a1.32,1.32,0,0,0-.61,1.05c0,.38.27.54.61.35a1.37,1.37,0,0,0,.6-1.05C248.85,228.71,248.58,228.55,248.25,228.75Z" style="opacity:0.15"></path></g></g></g><g id="freepik--speech-bubble--inject-2"><g id="freepik--speech-bubble--inject-2"><path d="M107.83,41.93C102.59,34.3,88.58,28,71.27,27.81c-15.76-.14-34.93,4.49-39.72,19.62C27.46,60.34,40,72.33,53.11,74.89a90.36,90.36,0,0,0,15.76,1.66c2.42,4.53,8.1,7.31,12.38,7.6a12.58,12.58,0,0,1-2.84-8,81.08,81.08,0,0,0,12.1-2C113.19,68.48,113.69,50.46,107.83,41.93Z" style="fill:#109646"></path><path d="M107.83,41.93C102.59,34.3,88.58,28,71.27,27.81c-15.76-.14-34.93,4.49-39.72,19.62C27.46,60.34,40,72.33,53.11,74.89a90.36,90.36,0,0,0,15.76,1.66c2.42,4.53,8.1,7.31,12.38,7.6a12.58,12.58,0,0,1-2.84-8,81.08,81.08,0,0,0,12.1-2C113.19,68.48,113.69,50.46,107.83,41.93Z" style="fill:#fff;opacity:0.6000000000000001"></path></g></g><g id="freepik--Podium--inject-2"><g id="freepik--podium--inject-2"><g id="freepik--podium--inject-2"><polygon points="168.47 481.93 168.47 468.72 234.43 430.63 234.43 443.85 168.47 481.93" style="fill:#ebebeb"></polygon><polygon points="168.47 468.72 111.03 435.56 111.03 448.77 168.47 481.93 168.47 468.72" style="fill:#e0e0e0"></polygon><polygon points="168.47 468.72 111.03 435.56 111.03 448.77 168.47 481.93 168.47 468.72" style="opacity:0.1"></polygon><polygon points="168.47 468.72 111.03 435.56 181.72 400.2 234.43 430.63 168.47 468.72" style="fill:#f5f5f5"></polygon><polygon points="168.47 463.28 225.01 430.63 231.39 260.37 168.47 296.69 168.47 463.28" style="fill:#ebebeb"></polygon><polygon points="168.47 463.28 120.45 435.56 114.08 265.29 168.47 296.69 168.47 463.28" style="fill:#e0e0e0"></polygon><polygon points="168.47 463.28 120.45 435.56 114.08 265.29 168.47 296.69 168.47 463.28" style="opacity:0.1"></polygon><polygon points="230.64 280.3 231.39 260.37 168.47 296.69 114.08 265.29 114.82 285.22 168.47 316.19 230.64 280.3" style="opacity:0.2"></polygon><polygon points="179.91 313.43 219.94 290.31 216.17 422.47 179.91 443.46 179.91 313.43" style="fill:#e0e0e0"></polygon><path d="M214.15,300.17l-3.56,119L185.54,433.7v-117l28.61-16.52m1.57-2.54-31.59,18.24V436.15L212,420l3.77-122.4Z" style="fill:#f5f5f5"></path><polygon points="164.05 309.96 164.05 291.7 252.41 240.69 252.41 258.94 164.05 309.96" style="fill:#ebebeb"></polygon><polygon points="164.05 291.7 102.19 264.57 102.19 274.25 164.05 309.96 164.05 291.7" style="fill:#e0e0e0"></polygon><polygon points="164.05 291.7 102.19 264.57 190.56 213.55 252.41 240.69 164.05 291.7" style="fill:#fafafa"></polygon></g></g></g><g id="freepik--Paper--inject-2"><g id="freepik--paper--inject-2"><path d="M184.8,339.05,239,307.7a9.87,9.87,0,0,1-.51-3v-47.5a14.2,14.2,0,0,0-8.47-13l-54.57-24a5.78,5.78,0,0,1-3.44-5.28,5.1,5.1,0,0,1,.1-1l-50.17,29h-2.48a5.76,5.76,0,0,0-2.32,11l54.57,24a14.2,14.2,0,0,1,8.48,13v47.5c0,2.8,1.44,5.89,3.21,6.92s3.2.25,3.2-1.72S185.81,339.6,184.8,339.05Z" style="fill:#109646"></path><path d="M184.8,339.05,239,307.7a9.87,9.87,0,0,1-.51-3v-47.5a14.2,14.2,0,0,0-8.47-13l-54.57-24a5.78,5.78,0,0,1-3.44-5.28,5.1,5.1,0,0,1,.1-1l-50.17,29h-2.48a5.76,5.76,0,0,0-2.32,11l54.57,24a14.2,14.2,0,0,1,8.48,13v47.5c0,2.8,1.44,5.89,3.21,6.92s3.2.25,3.2-1.72S185.81,339.6,184.8,339.05Z" style="fill:#fff;opacity:0.8"></path><path d="M177.79,209.17a5.74,5.74,0,0,0-2.91.79h0l-58.12,33.61a5.72,5.72,0,0,1,2.74-.7H122l50.17-29,8.13-4.71Z" style="fill:#109646"></path><path d="M177.79,209.17a5.74,5.74,0,0,0-2.91.79h0l-58.12,33.61a5.72,5.72,0,0,1,2.74-.7H122l50.17-29,8.13-4.71Z" style="fill:#fff;opacity:0.9"></path><path d="M244.93,309.92c0-2-.82-4-1.83-4.57h0L239,307.7l-54.24,31.35c1,.54,1.84,2.59,1.84,4.57a2.14,2.14,0,0,1-.87,1.94h0L244,311.9h0l.06,0h0A2.14,2.14,0,0,0,244.93,309.92Z" style="fill:#109646"></path><path d="M244.93,309.92c0-2-.82-4-1.83-4.57h0L239,307.7l-54.24,31.35c1,.54,1.84,2.59,1.84,4.57a2.14,2.14,0,0,1-.87,1.94h0L244,311.9h0l.06,0h0A2.14,2.14,0,0,0,244.93,309.92Z" style="fill:#fff;opacity:0.5"></path><path d="M183.43,345.34c1.77,1,3.2.25,3.2-1.72s-.82-4-1.83-4.57L239,307.7a9.87,9.87,0,0,1-.51-3v-47.5a14.09,14.09,0,0,0-2-7.28l-58.32,33.67a14.09,14.09,0,0,1,2,7.31v47.5C180.22,341.22,181.66,344.31,183.43,345.34Z" style="fill:#109646;opacity:0.2"></path></g></g></svg>
