<svg xmlns="http://www.w3.org/2000/svg" viewBox="0 0 500 500"><g id="freepik--background-complete--inject-19"><path d="M55.86,70.71H220.74v215.5H55.86Zm160.53,4.35H60.21v206.8H216.39Z" style="fill:#ebebeb"></path><rect x="137.82" y="76.2" width="4.35" height="207.84" style="fill:#ebebeb"></rect><rect x="51.92" y="79.5" width="172.77" height="6.05" transform="translate(276.6 165.06) rotate(180)" style="fill:#ebebeb"></rect><rect x="51.92" y="86.31" width="172.77" height="6.05" transform="translate(276.6 178.68) rotate(180)" style="fill:#ebebeb"></rect><rect x="51.92" y="93.13" width="172.77" height="6.05" transform="translate(276.6 192.3) rotate(180)" style="fill:#ebebeb"></rect><rect x="51.92" y="99.94" width="172.77" height="6.05" transform="translate(276.6 205.93) rotate(180)" style="fill:#ebebeb"></rect><rect x="51.92" y="106.75" width="172.77" height="6.05" transform="translate(276.6 219.55) rotate(180)" style="fill:#ebebeb"></rect><rect x="51.92" y="113.56" width="172.77" height="6.05" transform="translate(276.6 233.17) rotate(180)" style="fill:#ebebeb"></rect><rect x="51.92" y="120.37" width="172.77" height="6.05" transform="translate(276.6 246.79) rotate(180)" style="fill:#ebebeb"></rect><rect x="51.92" y="127.18" width="172.77" height="6.05" transform="translate(276.6 260.42) rotate(180)" style="fill:#ebebeb"></rect><rect x="51.92" y="133.99" width="172.77" height="6.05" transform="translate(276.6 274.04) rotate(180)" style="fill:#ebebeb"></rect><rect x="64.83" y="78.27" width="1.09" height="139.55" style="fill:#263238"></rect><polygon points="63.44 222.89 67.3 222.89 66.33 217.35 64.41 217.35 63.44 222.89" style="fill:#263238"></polygon><rect x="60.91" y="78.27" width="1.09" height="201.88" style="fill:#263238"></rect><polygon points="59.53 284.23 63.38 284.23 62.42 278.69 60.49 278.69 59.53 284.23" style="fill:#263238"></polygon><rect x="45.17" y="69.86" width="186.26" height="12.67" transform="translate(276.6 152.39) rotate(180)" style="fill:#dbdbdb"></rect><rect x="414.79" y="324.42" width="26.48" height="11.19" transform="translate(856.07 660.03) rotate(180)" style="fill:#ebebeb"></rect><rect x="429.56" y="338.53" width="26.48" height="11.19" transform="translate(885.61 688.25) rotate(180)" style="fill:#ebebeb"></rect><rect x="400.02" y="338.53" width="26.48" height="11.19" transform="translate(826.52 688.25) rotate(180)" style="fill:#ebebeb"></rect><rect x="58.73" y="338.53" width="26.48" height="11.19" transform="translate(143.93 688.25) rotate(180)" style="fill:#ebebeb"></rect><rect x="58.73" y="36.58" width="26.48" height="11.19" transform="translate(143.93 84.34) rotate(180)" style="fill:#ebebeb"></rect><rect x="43.96" y="50.69" width="26.48" height="11.19" transform="translate(114.39 112.56) rotate(180)" style="fill:#ebebeb"></rect><rect x="429.56" y="36.59" width="26.48" height="11.19" transform="translate(885.61 84.36) rotate(180)" style="fill:#ebebeb"></rect><rect x="259.73" y="122.83" width="26.48" height="11.19" style="fill:#ebebeb"></rect><rect x="244.96" y="108.72" width="26.48" height="11.19" style="fill:#ebebeb"></rect></g><g id="freepik--Floor--inject-19"><polygon points="36.71 409.91 90.03 409.67 143.35 409.58 250 409.41 356.64 409.58 409.97 409.67 463.29 409.91 409.97 410.15 356.64 410.24 250 410.41 143.35 410.24 90.03 410.15 36.71 409.91" style="fill:#263238"></polygon></g><g id="freepik--Shadow--inject-19"><ellipse cx="162.17" cy="452.1" rx="125.46" ry="19.49" style="fill:#ebebeb"></ellipse><ellipse cx="410.67" cy="452.1" rx="49.2" ry="12.54" style="fill:#ebebeb"></ellipse></g><g id="freepik--Cheklist--inject-19"><polygon points="406.24 429.62 154.7 429.62 178.06 95.5 429.61 95.5 406.24 429.62" style="fill:#109646"></polygon><g style="opacity:0.1"><polygon points="406.24 429.62 154.7 429.62 178.06 95.5 429.61 95.5 406.24 429.62"></polygon></g><polygon points="400.08 429.62 148.53 429.62 171.9 95.5 423.44 95.5 400.08 429.62" style="fill:#109646"></polygon><polygon points="388.63 409.84 166.39 412.67 183.6 111.67 405.85 108.84 388.63 409.84" style="fill:#ebebeb"></polygon><polygon points="383.18 413.63 161.51 408.84 189.05 107.89 410.72 112.67 383.18 413.63" style="fill:#dbdbdb"></polygon><polygon points="386.62 411.27 164.56 411.27 185.61 110.25 407.67 110.25 386.62 411.27" style="fill:#fff"></polygon><polygon points="231.92 205.19 209.75 205.19 211.3 183.02 233.47 183.02 231.92 205.19" style="fill:#ebebeb"></polygon><polygon points="317.04 186.27 245.21 186.27 245.44 183.02 317.27 183.02 317.04 186.27" style="fill:#263238"></polygon><polygon points="371.14 192.57 244.77 192.57 245 189.32 371.36 189.32 371.14 192.57" style="fill:#ebebeb"></polygon><polygon points="370.69 198.88 244.33 198.88 244.56 195.63 370.92 195.63 370.69 198.88" style="fill:#ebebeb"></polygon><polygon points="370.25 205.19 243.89 205.19 244.12 201.94 370.48 201.94 370.25 205.19" style="fill:#ebebeb"></polygon><path d="M212.24,193c.77.68,1.5,1.4,2.22,2.11s1.41,1.46,2.12,2.19c1.39,1.48,2.72,3,4,4.53l-2.56.17a111,111,0,0,1,7.75-12.11c1.43-1.94,2.92-3.83,4.5-5.67a60.3,60.3,0,0,1,5.1-5.28,53.64,53.64,0,0,1-2.94,6.65c-1.09,2.14-2.28,4.22-3.54,6.26a110,110,0,0,1-8.32,11.75l-1.52,1.86-1-1.7c-1-1.73-2.08-3.47-3-5.26-.48-.91-1-1.79-1.43-2.71S212.65,193.9,212.24,193Z" style="fill:#109646"></path><polygon points="229.02 246.64 206.85 246.64 208.4 224.47 230.57 224.47 229.02 246.64" style="fill:#ebebeb"></polygon><polygon points="314.14 227.72 242.31 227.72 242.54 224.47 314.37 224.47 314.14 227.72" style="fill:#263238"></polygon><polygon points="368.24 234.03 241.87 234.03 242.1 230.78 368.46 230.78 368.24 234.03" style="fill:#ebebeb"></polygon><polygon points="367.8 240.34 241.43 240.34 241.66 237.09 368.02 237.09 367.8 240.34" style="fill:#ebebeb"></polygon><polygon points="367.36 246.64 240.99 246.64 241.22 243.4 367.58 243.4 367.36 246.64" style="fill:#ebebeb"></polygon><path d="M209.34,234.41c.77.68,1.5,1.39,2.22,2.11s1.41,1.46,2.12,2.19c1.39,1.48,2.72,3,4,4.53l-2.55.16a109,109,0,0,1,7.75-12.11c1.42-1.93,2.91-3.82,4.49-5.66a58.93,58.93,0,0,1,5.1-5.28,56.55,56.55,0,0,1-2.93,6.65c-1.1,2.14-2.29,4.22-3.55,6.26A111,111,0,0,1,217.7,245l-1.52,1.86-1-1.7c-1.06-1.73-2.09-3.48-3.06-5.27-.48-.9-1-1.79-1.43-2.7S209.75,235.36,209.34,234.41Z" style="fill:#109646"></path><polygon points="226.12 288.1 203.95 288.1 205.5 265.93 227.67 265.93 226.12 288.1" style="fill:#ebebeb"></polygon><polygon points="311.24 269.18 239.41 269.18 239.64 265.93 311.47 265.93 311.24 269.18" style="fill:#263238"></polygon><polygon points="365.34 275.49 238.97 275.49 239.2 272.24 365.57 272.24 365.34 275.49" style="fill:#ebebeb"></polygon><polygon points="364.9 281.79 238.53 281.79 238.76 278.55 365.13 278.55 364.9 281.79" style="fill:#ebebeb"></polygon><polygon points="364.46 288.1 238.09 288.1 238.32 284.85 364.68 284.85 364.46 288.1" style="fill:#ebebeb"></polygon><path d="M206.44,275.87c.77.68,1.5,1.39,2.22,2.11s1.41,1.46,2.12,2.19c1.39,1.47,2.72,3,4,4.53l-2.55.16A110.49,110.49,0,0,1,220,272.75c1.42-1.93,2.91-3.83,4.49-5.66a58.93,58.93,0,0,1,5.1-5.28,55.68,55.68,0,0,1-2.93,6.64c-1.1,2.14-2.29,4.23-3.55,6.27a108.44,108.44,0,0,1-8.32,11.74l-1.52,1.86-1-1.69c-1.06-1.73-2.09-3.48-3.06-5.27-.47-.9-1-1.79-1.43-2.71S206.85,276.82,206.44,275.87Z" style="fill:#109646"></path><polygon points="223.22 329.56 201.05 329.56 202.6 307.39 224.77 307.39 223.22 329.56" style="fill:#ebebeb"></polygon><polygon points="308.34 310.64 236.51 310.64 236.74 307.39 308.57 307.39 308.34 310.64" style="fill:#263238"></polygon><polygon points="362.44 316.94 236.07 316.94 236.3 313.69 362.67 313.69 362.44 316.94" style="fill:#ebebeb"></polygon><polygon points="362 323.25 235.63 323.25 235.86 320 362.23 320 362 323.25" style="fill:#ebebeb"></polygon><polygon points="361.56 329.56 235.19 329.56 235.42 326.31 361.79 326.31 361.56 329.56" style="fill:#ebebeb"></polygon><polygon points="220.32 371.01 198.15 371.01 199.7 348.85 221.87 348.85 220.32 371.01" style="fill:#ebebeb"></polygon><polygon points="305.44 352.09 233.62 352.09 233.84 348.85 305.67 348.85 305.44 352.09" style="fill:#263238"></polygon><polygon points="359.54 358.4 233.18 358.4 233.4 355.15 359.77 355.15 359.54 358.4" style="fill:#ebebeb"></polygon><polygon points="359.1 364.71 232.73 364.71 232.96 361.46 359.33 361.46 359.1 364.71" style="fill:#ebebeb"></polygon><polygon points="358.66 371.01 232.29 371.01 232.52 367.76 358.89 367.76 358.66 371.01" style="fill:#ebebeb"></polygon><path d="M255.32,145.44a5.57,5.57,0,0,1,3.53,1.23.41.41,0,0,1-.52.64,4.82,4.82,0,0,0-3.07-1.09,5.4,5.4,0,0,0-5.38,4.93,4.56,4.56,0,0,0,4.7,4.87,5.1,5.1,0,0,0,3.18-1.09.37.37,0,0,1,.55.09.38.38,0,0,1-.08.56,6.27,6.27,0,0,1-3.71,1.22,5.28,5.28,0,0,1-5.43-5.65A6.28,6.28,0,0,1,255.32,145.44Z" style="fill:#263238"></path><path d="M268.44,151.58h-5.76l-.34,4.84a.43.43,0,0,1-.43.38.35.35,0,0,1-.35-.38l.73-10.44a.41.41,0,0,1,.41-.38.35.35,0,0,1,.37.38l-.34,4.83h5.77l.33-4.83a.43.43,0,0,1,.41-.38.36.36,0,0,1,.38.38l-.73,10.44a.44.44,0,0,1-.43.38.36.36,0,0,1-.36-.38Z" style="fill:#263238"></path><path d="M273.63,146a.42.42,0,0,1,.41-.38h5.76a.34.34,0,0,1,.36.38.42.42,0,0,1-.41.4h-5.36l-.31,4.43h4.69a.36.36,0,0,1,.35.4.42.42,0,0,1-.41.39H274l-.31,4.42h5.37a.35.35,0,0,1,.35.4.41.41,0,0,1-.41.38h-5.79a.36.36,0,0,1-.33-.38Z" style="fill:#263238"></path><path d="M288.49,145.44a5.61,5.61,0,0,1,3.53,1.23.39.39,0,0,1,0,.56.38.38,0,0,1-.55.08,4.77,4.77,0,0,0-3.06-1.09,5.42,5.42,0,0,0-5.39,4.93,4.58,4.58,0,0,0,4.71,4.87,5.1,5.1,0,0,0,3.18-1.09.37.37,0,0,1,.55.09.38.38,0,0,1-.09.56,6.22,6.22,0,0,1-3.7,1.22,5.28,5.28,0,0,1-5.43-5.65A6.27,6.27,0,0,1,288.49,145.44Z" style="fill:#263238"></path><path d="M295.45,146a.42.42,0,0,1,.41-.4.37.37,0,0,1,.38.4l-.46,6.48,7.25-6.77a.4.4,0,0,1,.54,0,.39.39,0,0,1,0,.56l-4.59,4.29,4,5.57a.43.43,0,0,1-.11.56.4.4,0,0,1-.26.08.31.31,0,0,1-.28-.14l-4-5.51-2.64,2.47-.19,2.8a.43.43,0,0,1-.43.38.36.36,0,0,1-.36-.38Z" style="fill:#263238"></path><path d="M306.55,156.8h0a.36.36,0,0,1-.36-.38l.73-10.44a.43.43,0,0,1,.42-.38.36.36,0,0,1,.37.38l-.7,10h5.36a.36.36,0,0,1,.37.4.43.43,0,0,1-.43.38Z" style="fill:#263238"></path><path d="M316.09,146a.43.43,0,0,1,.41-.38.36.36,0,0,1,.38.38l-.73,10.44a.43.43,0,0,1-.43.38.36.36,0,0,1-.36-.38Z" style="fill:#263238"></path><path d="M319.74,154.7a.34.34,0,0,1,.5,0,5.75,5.75,0,0,0,3.58,1.44,4.44,4.44,0,0,0,2.52-.74,2.25,2.25,0,0,0,1.07-1.66,1.64,1.64,0,0,0-.8-1.54,6.79,6.79,0,0,0-2.53-.91h0a6.65,6.65,0,0,1-2.58-.95,2.15,2.15,0,0,1-1-2,2.84,2.84,0,0,1,1.31-2.1,4.88,4.88,0,0,1,2.76-.81,5.81,5.81,0,0,1,3.37,1.29.35.35,0,0,1,.06.5.36.36,0,0,1-.49.1,5.15,5.15,0,0,0-3-1.19,4.22,4.22,0,0,0-2.33.67,2.13,2.13,0,0,0-1,1.54,1.49,1.49,0,0,0,.74,1.36,6.08,6.08,0,0,0,2.34.85h0a7.27,7.27,0,0,1,2.78,1,2.32,2.32,0,0,1,1.08,2.12,3.08,3.08,0,0,1-1.42,2.24,5.24,5.24,0,0,1-2.94.88,6.54,6.54,0,0,1-4-1.62A.38.38,0,0,1,319.74,154.7Z" style="fill:#263238"></path><path d="M334.16,146.38h-3.37a.36.36,0,0,1-.36-.4.41.41,0,0,1,.41-.38h7.52a.35.35,0,0,1,.36.38.42.42,0,0,1-.41.4h-3.38l-.7,10a.42.42,0,0,1-.41.38.36.36,0,0,1-.36-.38Z" style="fill:#263238"></path><polygon points="350.31 122.66 241.24 122.66 243.56 89.41 352.63 89.41 350.31 122.66" style="fill:#c7c7c7"></polygon><path d="M332.72,71.22H265L260.75,89.4h74.69ZM298.45,84.3a3.67,3.67,0,0,1-3.71-4,4.35,4.35,0,0,1,4.27-4,3.67,3.67,0,0,1,3.71,4A4.33,4.33,0,0,1,298.45,84.3Z" style="fill:#c7c7c7"></path><polygon points="335.44 89.4 260.75 89.4 261.71 85.33 334.83 85.33 335.44 89.4" style="fill:#a6a6a6"></polygon></g><g id="freepik--Plant--inject-19"><path d="M416.92,364.63c7.18-14.76,19.74-22.33,33.89-18.15s16.35,23.93,5.78,28.91-21.13-9.57-26.71-12.56S416.92,364.63,416.92,364.63Z" style="fill:#109646"></path><path d="M410,403.9c0-1.78.11-3.56.17-5.34.13-3.55.25-7.1.38-10.65.24-6.49.94-12.87,3.63-18.86a29.17,29.17,0,0,1,11.39-13.12,24.31,24.31,0,0,1,6-2.58,14,14,0,0,1,7-3.84,28.73,28.73,0,0,1,10-.25c.12,0,.12.21,0,.19a24.13,24.13,0,0,0-9.42.67,20,20,0,0,0-3.8,1.48,18.89,18.89,0,0,0-2.19,1.39,20.36,20.36,0,0,1,8.65.08,19.88,19.88,0,0,1,3,1,9.42,9.42,0,0,1,2.36-.2,14.39,14.39,0,0,1,3.06.44,23.6,23.6,0,0,1,5.83,2.54c.1.06,0,.22-.1.16a21.85,21.85,0,0,0-5.69-2.14,19,19,0,0,0-2.92-.43,14.59,14.59,0,0,0-1.62,0,18.74,18.74,0,0,1,9.15,9.12c.05.11-.12.2-.16.09a17.19,17.19,0,0,0-11.67-9.35c-.31-.08-.63-.12-.94-.19.11.46.09,1,.15,1.43.09.72.21,1.43.36,2.14a33.94,33.94,0,0,0,1.15,4.32,35.39,35.39,0,0,0,1.71,4.19,20.31,20.31,0,0,0,2.4,4c.08.1-.08.22-.15.11-.85-1.33-1.84-2.56-2.62-4a29.54,29.54,0,0,1-1.92-4.11,28.33,28.33,0,0,1-1.26-4.43c-.16-.79-.28-1.59-.37-2.4a5.11,5.11,0,0,1-.09-1.46,19.24,19.24,0,0,0-5-.1c.63,3.52,1.31,7.18,3.28,10.24.06.1-.11.2-.17.09a40.85,40.85,0,0,1-2.43-5A19.29,19.29,0,0,1,435.8,354a23.27,23.27,0,0,0-8.31,2.78,27.49,27.49,0,0,0-11.07,12.11,45.71,45.71,0,0,0-4.1,17.35c-.47,7.54-.57,15.12-1.32,22.64-.05.49-.83.66-.92.1A26.52,26.52,0,0,1,410,403.9Z" style="fill:#263238"></path><path d="M426.56,354.75a8.35,8.35,0,0,1,1.63-1.51c.59-.48,1.19-.95,1.82-1.38a13.66,13.66,0,0,1,4.08-1.89.09.09,0,0,1,.05.18,10.77,10.77,0,0,0-4,2c-.6.44-1.17.91-1.73,1.4a10.92,10.92,0,0,1-1.65,1.4A.13.13,0,0,1,426.56,354.75Z" style="fill:#263238"></path><path d="M449.47,360.1a43.53,43.53,0,0,1,3.29,4.35,26.67,26.67,0,0,1,2.45,4.86c0,.05-.06.08-.09,0a58,58,0,0,0-5.79-9.11C449.25,360.13,449.39,360,449.47,360.1Z" style="fill:#263238"></path><path d="M434,358.64a10.43,10.43,0,0,0,.81,2.67,17.83,17.83,0,0,0,1.36,2.36c0,.05,0,.1-.08.06a9.66,9.66,0,0,1-2.28-5.05C433.83,358.56,434,358.52,434,358.64Z" style="fill:#263238"></path><path d="M411,365s-10.16-12.77-29.77-8.25c-18.65,4.31-27.25,38.49-8.41,42.58s15.52-27.54,22.38-32.91C400.21,362.47,407.45,363.32,411,365Z" style="fill:#109646"></path><path d="M411,365s-10.16-12.77-29.77-8.25c-18.65,4.31-27.25,38.49-8.41,42.58s15.52-27.54,22.38-32.91C400.21,362.47,407.45,363.32,411,365Z" style="opacity:0.1"></path><path d="M366.05,375.41a38.89,38.89,0,0,1,4-3.09,17.38,17.38,0,0,1,4.31-2.15,24.9,24.9,0,0,1,8.48-8,5.65,5.65,0,0,0-.58,0,29.52,29.52,0,0,0-3.12,0,17.11,17.11,0,0,0-6.05,1.51c-.11,0-.19-.13-.08-.17a27.17,27.17,0,0,1,6-1.83,17.48,17.48,0,0,1,3.06-.26c.55,0,1.11,0,1.65.1l.32,0a26.77,26.77,0,0,1,5.65-2.08l-.54-.14a24.18,24.18,0,0,0-2.91-.48,22.62,22.62,0,0,0-5.87.09.1.1,0,0,1,0-.19,37.86,37.86,0,0,1,5.93-.24,25.91,25.91,0,0,1,4.93.64,28.42,28.42,0,0,1,3.58-.41c6.84-.28,14.29,2.27,18.5,7.89s5,13.14,5.78,19.92a151,151,0,0,1,.75,28.51c0,.56-.83.46-.85-.07-.25-8.06-.54-16.12-1.31-24.16-.36-3.72-.75-7.45-1.37-11.14a32.93,32.93,0,0,0-2.7-9.17,16.91,16.91,0,0,0-6.62-7.12,22.33,22.33,0,0,0-9.38-2.88,25.29,25.29,0,0,0-8.8.82,6,6,0,0,1,.05,1.74,9.67,9.67,0,0,1-.43,2.14,11.46,11.46,0,0,1-.82,1.9c-.37.68-.82,1.28-1.23,1.92-.06.11-.23,0-.15-.1A8.87,8.87,0,0,0,387.8,365a16.79,16.79,0,0,0,.24-2c0-.51,0-1,0-1.52a25.91,25.91,0,0,0-8.56,4.52c-.48.39-.94.79-1.39,1.21a9.17,9.17,0,0,1,1.66,2,20.55,20.55,0,0,1,1.75,3.1,26.4,26.4,0,0,1,1.81,6.83c0,.12-.17.15-.18,0a19.76,19.76,0,0,0-2.23-6.46,27.2,27.2,0,0,0-1.74-2.88c-.33-.47-.68-.94-1-1.39-.19-.24-.41-.49-.59-.75A27.36,27.36,0,0,0,372,375.6l0,0a13.53,13.53,0,0,1,2.29,3.3,30.51,30.51,0,0,1,1.84,3.93,64.9,64.9,0,0,1,2.34,8c0,.11-.16.15-.18,0a33.59,33.59,0,0,0-2.78-7.88q-.88-1.85-1.86-3.63a34.23,34.23,0,0,1-1.84-3.43,25,25,0,0,0-2.24,9.09c0,.12-.2.1-.19,0a31.67,31.67,0,0,1,4.4-13.94c-1.19.51-2.4,1-3.55,1.62a20,20,0,0,0-4.08,2.87C366.08,375.64,366,375.49,366.05,375.41Z" style="fill:#263238"></path><path d="M380.43,376.14c.59,1.93,1.33,3.81,1.86,5.77a22.15,22.15,0,0,1,.87,5.77c0,.05-.09.05-.09,0a56.88,56.88,0,0,0-2.81-11.49A.09.09,0,1,1,380.43,376.14Z" style="fill:#263238"></path><path d="M368,371.33a10.87,10.87,0,0,1,2.6-1.85,18.45,18.45,0,0,1,3-1.07c.12,0,.16.16,0,.19a11.66,11.66,0,0,0-2.9,1.19,21.35,21.35,0,0,0-2.66,1.64A.06.06,0,0,1,368,371.33Z" style="fill:#263238"></path><path d="M401.32,347.93s-1.88-22.94-18.94-30.38c-14.24-6.21-22.4,9.79-12.33,19.59C378.2,345.07,391.26,341.49,401.32,347.93Z" style="fill:#109646"></path><path d="M401.32,347.93s-1.88-22.94-18.94-30.38c-14.24-6.21-22.4,9.79-12.33,19.59C378.2,345.07,391.26,341.49,401.32,347.93Z" style="opacity:0.1"></path><path d="M373.21,322a72.88,72.88,0,0,1,7.58,3.59,56.73,56.73,0,0,1,5.89,3.91c-.28-.58-.53-1.18-.81-1.75-.45-.89-.92-1.75-1.45-2.59a24.41,24.41,0,0,0-3.76-4.76c-.09-.08,0-.22.14-.13a37.6,37.6,0,0,1,3.95,4.6,26.13,26.13,0,0,1,1.62,2.6,10.32,10.32,0,0,1,1.15,2.64l.19.14a56.85,56.85,0,0,1,8.15,8c-.05-.22-.1-.45-.16-.66-.32-1.12-.66-2.22-1-3.33a28.79,28.79,0,0,0-3.08-6.69c-.07-.1.1-.2.16-.09a53.49,53.49,0,0,1,3.57,6.52,25.31,25.31,0,0,1,1.18,3.4,14.08,14.08,0,0,1,.55,2.3c.75.94,1.48,1.89,2.17,2.87,7.32,10.43,11,23,11.88,35.65a109.45,109.45,0,0,1,.19,11.31,70.6,70.6,0,0,1-1,11.34c-.05.24-.42.17-.41-.06.08-3.32.43-6.62.49-9.94s-.05-6.65-.32-10a93.22,93.22,0,0,0-3.72-19.52A69.73,69.73,0,0,0,397.65,343c-.71-.14-1.43-.34-2.13-.52L393,341.8a26,26,0,0,1-4.75-1.75c-.11-.05,0-.22.1-.16a15.51,15.51,0,0,0,4.82,1.67c1.33.26,2.72.44,4.06.74q-1.86-2.7-4-5.21a29.59,29.59,0,0,1-9.7-.72,40.86,40.86,0,0,1-5-1.55c-1.71-.66-3.33-1.51-5-2.21-.13-.05,0-.24.07-.17a28.42,28.42,0,0,0,9.84,3.22,60.44,60.44,0,0,0,9.21.76c-1.22-1.39-2.47-2.74-3.8-4-4.48-4.26-9.81-8.19-15.71-10.23C373,322.13,373.1,322,373.21,322Z" style="fill:#263238"></path><path d="M387.09,322.06a26.64,26.64,0,0,1,2.09,3.06,16.39,16.39,0,0,1,1.5,3.56s-.05.06-.06,0c-.57-1.13-1.05-2.3-1.63-3.42a16.77,16.77,0,0,0-2-3.1C386.88,322.1,387,322,387.09,322.06Z" style="fill:#263238"></path><path d="M371.23,329.7a17.52,17.52,0,0,0,3.49,1.46,31.32,31.32,0,0,0,3.57,1s0,.1,0,.1a17.25,17.25,0,0,1-3.69-.81,29.57,29.57,0,0,1-3.45-1.55C371,329.81,371.12,329.64,371.23,329.7Z" style="fill:#263238"></path><path d="M414.58,343.8c.1,1,2.58-8.33,17-16.61,13.1-7.51,28.73-27.06,15.89-39.41C437.1,277.81,409.79,299.54,414.58,343.8Z" style="fill:#109646"></path><path d="M404.65,397.25a253.86,253.86,0,0,1,2.29-29A130.37,130.37,0,0,1,413,342.29c1.07-3,2.3-6,3.63-9a20.61,20.61,0,0,1,.06-3.43c.07-1.47.2-2.94.34-4.4s.28-2.93.46-4.39.48-2.92.54-4.38c0-.13.22-.1.18,0a31.5,31.5,0,0,0-.51,4.65c-.11,1.41-.19,2.83-.24,4.25s0,2.84,0,4.26c0,.51,0,1.05.05,1.6,1.36-2.87,2.81-5.69,4.39-8.44-1-6,.29-12.23,1.51-18.08,0-.11.2-.06.18.06a50.52,50.52,0,0,0-.95,9.27c-.06,2.45.06,4.91.07,7.36.34-.59.69-1.18,1-1.76q2.81-4.57,6-8.95a14.15,14.15,0,0,1,.14-4.26,33.76,33.76,0,0,1,1.05-4.66c.46-1.53,1-3,1.6-4.5s1.45-2.95,2.06-4.47a.09.09,0,1,1,.16.07,22.75,22.75,0,0,0-1.8,4.53,40.59,40.59,0,0,0-1.18,4.49c-.31,1.51-.56,3-.77,4.57-.14,1-.23,2.07-.4,3.09a111,111,0,0,1,10.09-11.75c.09-.09.21.05.13.13a133.12,133.12,0,0,0-14.66,19.95c-.16.27-.31.54-.46.81.79-.5,1.7-.9,2.45-1.31q2.1-1.17,4.21-2.31l4.08-2.24c.7-.39,1.39-.79,2.1-1.15a17.19,17.19,0,0,0,2.45-1.36c.11-.08.22.09.11.15-1.39.76-2.62,1.9-4,2.75S434.41,315.2,433,316c-2.56,1.43-5.35,2.46-7.87,3.94q-2.62,4.6-4.85,9.41,2.29-1.47,4.68-2.8c1-.57,2-1.14,3.09-1.68a15.26,15.26,0,0,0,2.9-1.76.1.1,0,0,1,.13.14,26.91,26.91,0,0,1-5.54,3.85c-1.85,1.09-3.73,2.13-5.65,3.08-1.55,3.37-2.94,6.82-4.18,10.32-6.07,17.19-8.3,35.44-9.37,53.56-.31,5.41-.48,10.8-.54,16.22s.21,10.8.2,16.2c0,.16-.26.2-.28,0-.65-4.79-.77-9.66-1-14.49S404.54,402.16,404.65,397.25Z" style="fill:#263238"></path><path d="M430.85,319.42a69.49,69.49,0,0,0,7.67-4,83.55,83.55,0,0,0,7.28-4.62s.08,0,.05.07a62.46,62.46,0,0,1-7,4.88,70.21,70.21,0,0,1-7.92,3.8C430.83,319.63,430.74,319.47,430.85,319.42Z" style="fill:#263238"></path><path d="M426.67,300c.22-.84.48-1.66.77-2.48a.07.07,0,0,1,0-.1c.18-.46.37-.92.56-1.38l.07-.17.11-.27a0,0,0,0,1,0,0c-.05.16-.09.32-.14.48a2.5,2.5,0,0,1-.07.26,66.88,66.88,0,0,0-2.14,9.8c0,.1-.18.1-.17,0A32.89,32.89,0,0,1,426.67,300Z" style="fill:#263238"></path><polygon points="389.41 400.73 390.44 412.93 393.59 450.14 427.34 450.14 430.49 412.93 431.52 400.73 389.41 400.73" style="fill:#455a64"></polygon><polygon points="389.41 400.73 390.44 412.93 430.49 412.93 431.52 400.73 389.41 400.73" style="fill:#263238"></polygon><rect x="386.1" y="395.84" width="48.73" height="11.7" transform="translate(820.93 803.38) rotate(180)" style="fill:#455a64"></rect></g></svg>
